<svg width="58" height="24" viewBox="0 0 58 24" fill="none" xmlns="http://www.w3.org/2000/svg">
<g clip-path="url(#clip0_28033_341)">
<path d="M21.048 12.3283V24H17.1234V14.9882C14.6807 16.4772 12.1037 17.683 9.22181 18.3358L5.96537 24H1.83789L4.98981 18.6354C2.43518 18.2771 0.291176 17.0077 0 16.3811L0.139366 16.0316C1.82172 17.4421 4.63144 18.3583 8.0036 17.5881C22.2787 14.3316 30.2798 -4.67066 50.3983 1.07471L50.4095 1.54402C37.1349 -2.2467 29.6352 5.96008 21.048 12.3283Z" fill="#FAF8F2"/>
<path d="M46.6616 6.93489C37.7795 14.1718 28.4743 -1.7512 21.8034 3.44747L21.9925 2.98689C29.5456 -2.89952 39.1495 12.8999 46.5919 6.52174L46.6603 6.93489H46.6616Z" fill="#FAF8F2"/>
<path fill-rule="evenodd" clip-rule="evenodd" d="M5.70779 17.4145L13.3841 4.34985C14.2066 3.1129 14.7206 1.56641 16.6729 1.56641L21.048 1.60136V9.99412C19.7539 10.9839 18.4411 11.95 17.1234 12.8437V4.64317L16.2374 6.131L10.2969 16.4647C9.54908 16.7305 8.7863 16.9565 8.0036 17.135C7.20349 17.3172 6.43573 17.4046 5.70779 17.4145ZM25.3497 23.9999L26.4933 17.6904C27.0084 14.7934 28.9235 12.4992 30.668 12.4992C32.2409 12.4992 32.5843 13.6176 32.5843 14.7934C32.5843 15.2527 32.4985 15.7395 32.4126 16.2849L30.9829 23.9999H34.3289L35.5011 17.6043C36.0448 14.5649 37.874 12.4992 39.59 12.4992C40.9911 12.4992 41.5336 13.4166 41.5336 14.7934C41.5336 15.3101 41.4478 15.9404 41.3619 16.4285L39.9608 23.9999H43.3354L44.8224 15.9404C44.9369 15.3101 45.0228 14.2479 45.0228 13.6463C45.0228 10.8928 43.3068 9.68831 41.3345 9.68831C39.2192 9.71702 37.3315 10.6918 35.9876 12.7289C35.9017 11.1799 34.8154 9.68831 32.3852 9.68831C30.4403 9.68831 28.5825 10.6057 27.2088 12.5566H27.1515L27.495 10.0328H24.4638C24.3207 11.2373 24.0917 12.6428 23.8067 14.2492L22.0049 24.0012H25.351L25.3497 23.9999ZM48.6948 23.9999L51.354 10.0328H47.8648L45.2343 23.9999H48.6936H48.6948ZM49.9317 9.17781C51.1325 9.17781 52.0757 8.37523 52.0757 7.14203C52.0757 6.02366 51.247 5.30595 50.188 5.30595C49.1291 5.30595 48.1013 6.07982 48.1013 7.34298C48.1013 8.43264 48.9014 9.17781 49.9031 9.17781H49.9317ZM54.0841 23.9999L58.0012 3.46364H54.5121L50.5949 23.9999H54.0828H54.0841Z" fill="#FAF8F2"/>
</g>
<defs>
<clipPath id="clip0_28033_341">
<rect width="58" height="24" fill="white"/>
</clipPath>
</defs>
</svg>
