<svg width="67" height="24" viewBox="0 0 67 24" fill="none" xmlns="http://www.w3.org/2000/svg">
<g clip-path="url(#clip0_28033_319)">
<path d="M23.5086 19.2877C23.1084 19.2877 22.6534 19.3529 22.3097 19.4654C22.2918 19.5497 22.2829 19.6514 22.2829 19.755C22.2829 19.8656 22.2918 19.9793 22.3097 20.0709C22.7105 19.9602 23.081 19.9141 23.48 19.9141C24.2233 19.9141 24.642 20.2587 24.642 21.0329V21.2094C24.3907 21.1729 24.1685 21.1556 23.8052 21.1556C22.6438 21.1556 21.9392 21.6678 21.9392 22.5437C21.9392 23.5524 22.6998 24 23.7504 24C24.2877 24 24.8559 23.9156 25.3669 23.766V21.1353C25.3669 19.8375 24.6331 19.2877 23.5086 19.2877ZM24.6426 23.2993C24.4467 23.3466 24.0566 23.3927 23.7689 23.3927C23.0441 23.3927 22.6534 23.084 22.6534 22.5251C22.6534 21.946 23.0625 21.7126 23.8606 21.7126C24.1858 21.7126 24.4181 21.7222 24.642 21.7605V23.2993H24.6426ZM27.411 14.8674V11.6568C27.411 10.3794 28.0756 9.69617 28.972 9.69617C29.1316 9.69617 29.4056 9.69617 29.5652 9.72489C29.6671 9.30428 29.6808 8.6934 29.5938 8.27279C29.4931 8.24347 29.2323 8.21416 29.0887 8.21416C28.2359 8.21416 27.7433 8.54801 27.2811 9.14333C27.2364 8.83939 27.1799 8.59169 27.078 8.28655C26.9041 8.22971 26.6004 8.21416 26.3401 8.21416C26.0947 8.21416 25.7766 8.24347 25.6176 8.28655V14.8674C25.8344 14.9248 26.1959 14.9386 26.514 14.9386C26.8183 14.9386 27.2227 14.9104 27.411 14.8674ZM6.4455 11.4349V14.7872C6.4455 14.8715 6.5134 14.9386 6.59738 14.9386H7.49255V10.6553L6.59916 11.171C6.50387 11.2255 6.4455 11.311 6.4455 11.4349ZM9.16557 9.68899L7.86003 10.4429V14.9386H9.2555C9.38534 14.9386 9.49136 14.8333 9.49136 14.704V9.85712C9.49196 9.67224 9.31268 9.60403 9.16557 9.68899ZM20.2662 21.368L19.8201 21.1628C19.374 20.957 19.1322 20.8271 19.1322 20.4813C19.1322 20.0529 19.5503 19.9135 20.0149 19.9135C20.4139 19.9135 20.7493 19.9877 21.1012 20.1092C21.1203 20.0062 21.1298 19.8944 21.1298 19.7915C21.1298 19.6981 21.1203 19.5964 21.1012 19.512C20.841 19.381 20.3687 19.2871 19.9136 19.2871C19.0774 19.2871 18.3711 19.7633 18.3711 20.4622C18.3711 21.0605 18.6212 21.4045 19.4384 21.7599L19.7832 21.9089C20.3127 22.1416 20.5176 22.3373 20.5176 22.701C20.5176 23.197 20.0524 23.3634 19.6063 23.3634C19.1328 23.3634 18.7153 23.2706 18.2972 23.1031C18.2698 23.1964 18.2603 23.2987 18.2603 23.4106C18.2603 23.5135 18.2692 23.6158 18.2972 23.7194C18.6504 23.8959 19.1054 23.9898 19.7093 23.9898C20.5831 23.9898 21.2883 23.4938 21.2883 22.7106C21.2883 22.068 20.9625 21.6863 20.2662 21.368ZM7.38594 3.19733C6.47826 3.19733 5.48421 3.2805 4.50387 3.44802C5.49672 2.16824 7.07087 1.34197 8.82668 1.34197C10.1221 1.34197 11.4181 1.83199 12.29 2.56312C12.4485 2.69475 12.5694 2.70612 12.6903 2.58646C12.8106 2.46739 12.7987 2.34713 12.6653 2.19157C11.5277 0.86452 9.85586 -0.0347394 7.88147 0.00115923C5.30196 0.0502206 3.11018 1.68839 2.27516 3.96377C1.51161 4.20249 0.810003 4.49088 0.191778 4.83849C0.0220338 4.93363 -0.0375254 5.05329 0.0220338 5.19748C0.0827843 5.32851 0.204285 5.37697 0.374029 5.32851C0.90768 5.17295 1.45146 5.04192 2.02144 4.92166C1.9595 5.22141 1.92376 5.53253 1.92376 5.85502C1.87552 7.9497 2.98868 9.93669 4.70935 11.0256C4.8779 11.1333 5.02382 11.1333 5.1209 11.0023C5.21739 10.8713 5.20488 10.751 5.05956 10.62C3.96962 9.63754 3.3639 8.17886 3.3639 6.72915C3.3639 5.99862 3.50923 5.29261 3.78797 4.6596C4.35735 4.61054 4.97498 4.57464 5.65336 4.57464C10.0607 4.57464 13.7796 6.03451 13.7796 7.9503C13.7796 8.91897 12.5563 9.88942 11.103 10.5356C10.7516 10.6918 10.7153 10.7983 10.7635 10.9544C10.8118 11.0974 10.9696 11.1459 11.1501 11.086C13.6939 10.2484 15.62 8.8705 15.62 7.2078C15.6212 4.94559 11.9875 3.19733 7.38594 3.19733ZM24.5194 11.4971C24.5194 9.43471 23.5646 8.15612 21.598 8.15612C21.0774 8.15612 20.5724 8.27279 20.2531 8.43254V5.20765C19.7469 5.39732 19.2126 5.65758 18.7641 6.02075C18.5325 6.21042 18.4604 6.39948 18.4604 6.6759V14.6346C18.9375 14.8374 19.9065 15.0122 20.832 15.0122C23.1745 15.0128 24.5194 13.5732 24.5194 11.4971ZM20.2537 9.85532C20.4997 9.72489 20.8463 9.65309 21.2954 9.65309C22.1918 9.65309 22.6688 10.2765 22.6688 11.4534C22.6688 12.6889 22.1048 13.5445 20.9339 13.5445C20.7457 13.5445 20.4562 13.5445 20.2537 13.4727V9.85532ZM37.8261 19.2877C36.6093 19.2877 35.838 20.239 35.838 21.6582C35.838 23.0947 36.6373 23.991 38.0107 23.991C38.5122 23.991 39.0238 23.8881 39.3389 23.7475C39.3574 23.6547 39.3669 23.5518 39.3669 23.4483C39.3669 23.3466 39.3574 23.2437 39.3389 23.1504C38.9398 23.282 38.5307 23.3753 38.0667 23.3753C37.1382 23.3753 36.6272 22.7788 36.5807 21.8066H39.5813C39.5986 21.6947 39.6087 21.4338 39.6087 21.3034C39.6087 20.0619 38.885 19.2877 37.8261 19.2877ZM36.5908 21.2286C36.6551 20.3892 37.1656 19.8848 37.8166 19.8848C38.5039 19.8848 38.885 20.4448 38.885 21.2286H36.5908ZM46.352 8.128C44.4139 8.128 43.2299 9.43531 43.2299 11.6138C43.2299 13.7934 44.4866 15.0128 46.6414 15.0128C47.3788 15.0128 48.1733 14.8817 48.6802 14.6352C48.782 14.2134 48.782 13.6612 48.6802 13.2406C48.0149 13.4296 47.4509 13.5451 46.8291 13.5451C45.8314 13.5451 45.137 13.1682 44.9928 12.108H49.0703C49.1286 11.9476 49.1429 11.4103 49.1429 11.1919C49.1429 9.23069 48.0435 8.128 46.352 8.128ZM44.9928 10.7857C45.1227 9.98695 45.5998 9.5071 46.3228 9.5071C47.1328 9.5071 47.4509 10.0587 47.48 10.7857H44.9928ZM53.2501 10.9604L52.5265 10.6553C52.1078 10.48 51.8612 10.3352 51.8612 10.0587C51.8612 9.63754 52.2364 9.55018 52.7284 9.55018C53.2198 9.55018 53.726 9.60822 54.4205 9.826C54.5074 9.34795 54.5074 8.89743 54.4205 8.47562C53.9869 8.24288 53.1769 8.1274 52.4687 8.1274C51.0804 8.1274 50.0244 8.88247 50.0244 10.0163C50.0244 11.0322 50.4586 11.5408 51.6742 12.0344L52.2364 12.2665C52.7725 12.4849 52.9315 12.6159 52.9315 12.9647C52.9315 13.4877 52.4104 13.5738 51.9768 13.5738C51.2537 13.5738 50.704 13.4296 50.0113 13.1819C49.8946 13.6037 49.8946 14.156 50.0113 14.5921C50.6033 14.911 51.4133 15.0128 52.2668 15.0128C53.6403 15.0128 54.7385 14.2858 54.7385 12.9785C54.7379 11.9039 54.2764 11.396 53.2501 10.9604ZM58.8303 13.5301C57.9339 13.5301 57.3413 12.8182 57.3413 11.5701C57.3413 10.3788 57.8177 9.60822 58.8445 9.60822C59.2781 9.60822 59.5813 9.68061 59.9863 9.84096C60.103 9.43531 60.3186 8.96922 60.6224 8.57913C60.0584 8.28655 59.5092 8.128 58.6129 8.128C56.6319 8.128 55.4896 9.53582 55.4896 11.5707C55.4896 13.6761 56.6617 15.0128 58.6849 15.0128C59.4229 15.0128 60.1024 14.8817 60.6504 14.5766C60.4062 14.2565 60.131 13.8209 59.9714 13.3136C59.4663 13.5152 59.2495 13.5301 58.8303 13.5301ZM63.8469 8.128C61.8374 8.128 60.7099 9.5077 60.7099 11.5838C60.7099 13.6905 61.8952 15.0128 63.8469 15.0128C65.8708 15.0128 66.9994 13.6612 66.9994 11.5838C67 9.49334 65.8713 8.128 63.8469 8.128ZM63.8469 13.5601C62.8499 13.5601 62.5462 12.7464 62.5462 11.5838C62.5462 10.4506 62.8499 9.5801 63.8469 9.5801C64.8731 9.5801 65.1632 10.4225 65.1632 11.5838C65.1632 12.8044 64.8308 13.5601 63.8469 13.5601ZM32.399 8.128C31.6909 8.11364 31.0697 8.2004 30.4616 8.34579C30.3466 8.75264 30.3597 9.34795 30.4616 9.76916C31.2132 9.59446 31.6331 9.5801 32.1108 9.5801C33.0357 9.5801 33.483 9.95823 33.483 10.7277V10.7995C33.209 10.7713 32.8767 10.742 32.645 10.742C31.1126 10.742 29.7975 11.2943 29.7975 12.7751C29.7975 14.445 30.9821 15.0128 32.7034 15.0128C33.5128 15.0128 34.3943 14.8674 35.2055 14.6209V10.8587C35.2049 9.05598 34.2353 8.17108 32.399 8.128ZM33.483 13.5301C33.3824 13.5601 32.9351 13.6031 32.7177 13.6031C31.8928 13.6031 31.4449 13.3566 31.4449 12.7751C31.4449 12.1941 31.8922 11.962 32.7177 11.962C32.9923 11.962 33.3109 11.9907 33.483 12.0056V13.5301ZM34.1644 17.9164V19.3816C33.9041 19.3146 33.6266 19.2877 33.3383 19.2877C31.9911 19.2877 31.0995 20.221 31.0995 21.7132C31.0995 23.206 31.9726 24 33.2912 24C33.9142 24 34.5271 23.8594 34.9345 23.7206V17.2241C34.7213 17.3091 34.48 17.4311 34.3037 17.5813C34.2102 17.6651 34.1644 17.7578 34.1644 17.9164ZM34.1644 23.2533C33.8571 23.3364 33.57 23.3747 33.3204 23.3747C32.399 23.3747 31.8803 22.7585 31.8803 21.7132C31.8803 20.51 32.4747 19.9141 33.3752 19.9141C33.6909 19.9141 33.9607 19.9506 34.1644 20.0068V23.2533ZM29.4258 19.3613V23.2527C29.1572 23.3173 28.8499 23.3634 28.4795 23.3634C27.6146 23.3634 27.1596 22.8973 27.1596 21.8813V19.3613C27.0572 19.3427 26.9279 19.3248 26.7886 19.3248C26.6492 19.3248 26.4908 19.3427 26.3883 19.3613V21.9095C26.3883 23.2904 27.1126 23.9904 28.433 23.9904C29.0351 23.9904 29.6575 23.8773 30.1971 23.7289V19.3613C30.0953 19.3427 29.9553 19.3248 29.8166 19.3248C29.6772 19.3248 29.5277 19.3427 29.4258 19.3613ZM40.4241 6.6759V8.25843C40.106 8.17048 39.7725 8.15552 39.4848 8.15552C37.5039 8.15552 36.159 9.49275 36.159 11.6269C36.159 13.8054 37.4747 15.0122 39.5277 15.0122C40.4675 15.0122 41.3931 14.8811 42.2162 14.6059V5.20765C41.7105 5.39732 41.1763 5.65758 40.7272 6.02075C40.4955 6.21042 40.4241 6.39948 40.4241 6.6759ZM40.4241 13.4434C40.1203 13.5301 39.9023 13.5445 39.6569 13.5445C38.4717 13.5445 38.0101 12.7607 38.0101 11.6269C38.0101 10.3639 38.4717 9.59386 39.6432 9.59386C39.9899 9.59386 40.2073 9.63754 40.4247 9.69617V13.4434H40.4241ZM28.7671 17.5328L27.7076 18.6714C27.8201 18.6906 27.9392 18.7007 28.0512 18.7007C28.162 18.7007 28.2835 18.6906 28.3853 18.6714L29.6021 17.5328C29.4723 17.5149 29.3234 17.4957 29.1745 17.4957C29.0357 17.4957 28.8964 17.5149 28.7671 17.5328Z" fill="#FAF8F2"/>
</g>
<defs>
<clipPath id="clip0_28033_319">
<rect width="67" height="24" fill="white"/>
</clipPath>
</defs>
</svg>
