<svg width="274" height="121" viewBox="0 0 274 121" fill="none" xmlns="http://www.w3.org/2000/svg">
<path d="M182.009 68.9979C183.8 67.9959 185.338 66.9237 187.032 66.2324C191.715 64.323 196.422 66.2978 198.404 70.9703C201.322 77.853 197.638 87.1908 189.718 89.3356C186.87 90.1069 184.044 89.7066 181.265 88.9449C179.995 88.5979 178.794 88.057 177.895 89.5926C177.781 89.7893 177.348 89.799 176.932 89.9396C176.932 89.3792 176.932 88.9813 176.932 88.5858C176.87 78.6439 176.812 68.7021 176.744 58.7602C176.729 56.7272 176.297 56.2274 174.343 55.7543C174.073 55.6889 173.85 55.417 173.606 55.24C173.845 55.0919 174.068 54.8664 174.326 54.8106C176.829 54.2599 179.335 53.7383 182.009 53.1704V68.9979ZM182.019 77.1762H182.033C182.033 79.1534 181.997 81.133 182.045 83.1103C182.079 84.4544 182.314 85.74 183.423 86.7153C185.637 88.6634 189.542 88.251 191.659 85.8033C194.449 82.5814 195.082 76.1742 193.018 72.4356C190.622 68.0932 185.488 68.6075 182.425 70.2377C182.181 70.3687 182.04 70.8951 182.033 71.2421C181.997 73.2193 182.016 75.199 182.016 77.1762H182.019Z" fill="#FAF8F2"/>
<path d="M118.02 35.6739C118.402 36.1373 118.74 36.4331 118.939 36.8044C119.857 38.5415 120.546 40.4363 121.67 42.0181C123.631 44.7739 126.466 45.8876 129.817 45.3391C132.065 44.973 133.627 43.5998 134.313 41.4262C135.075 39.0171 135.036 36.5619 132.96 34.849C131.34 33.5124 129.389 32.5662 127.54 31.5328C125.964 30.6521 124.279 29.9653 122.72 29.0582C119.591 27.2337 117.742 24.5604 118.064 20.8096C118.4 16.877 120.544 14.1356 124.148 12.6314C128.239 10.9211 132.273 11.7362 136.255 13.1433C136.467 13.2185 136.731 13.5193 136.748 13.7328C136.946 15.9769 137.101 18.2259 137.002 20.6883C136.69 20.3923 136.334 20.1279 136.076 19.7906C134.927 18.2986 133.985 16.598 132.641 15.3219C130.209 13.0099 126.658 12.8983 124.494 14.7688C121.927 16.9886 121.83 20.8872 124.436 23.0464C125.625 24.0338 127.066 24.7301 128.434 25.482C130.511 26.6224 132.718 27.5468 134.703 28.8252C142.023 33.5391 139.753 42.4426 133.871 45.5891C128.773 48.3161 123.621 47.5688 118.547 45.3757C118.315 45.2761 118.044 44.9172 118.042 44.6769C118.008 41.8141 118.02 38.9516 118.02 35.6763V35.6739Z" fill="#FAF8F2"/>
<path d="M145.67 65.6331C145.335 65.3322 144.902 65.0897 144.682 64.7185C144.232 63.9614 143.918 63.1222 143.509 62.3385C139.443 54.529 129.45 55.9386 125.647 61.5644C124.088 63.8717 123.37 66.4578 123.106 69.1654C122.625 74.0854 123.493 78.7142 126.3 82.8944C130.554 89.231 139.264 89.4398 143.761 83.246C144.488 82.244 144.969 81.0651 145.637 80.0146C145.857 79.6676 146.304 79.4688 146.647 79.2018C146.765 79.2843 146.884 79.367 147.002 79.4494C146.649 81.7006 146.311 83.9545 145.924 86.1985C145.886 86.4218 145.583 86.6425 145.354 86.7858C138.587 90.9415 129.036 90.8057 122.739 85.8881C115.716 80.4053 114.583 69.2818 120.348 62.0715C124.566 56.7974 130.23 54.7329 136.803 55.3006C139.453 55.5285 142.052 56.368 144.66 56.9793C144.974 57.052 145.436 57.4087 145.458 57.666C145.687 60.2303 145.837 62.8019 146.011 65.371C145.898 65.4607 145.784 65.548 145.67 65.638V65.6331Z" fill="#FAF8F2"/>
<path d="M229.854 22.6025V26.9427C231.201 26.0549 232.405 25.2106 233.657 24.4511C235.775 23.163 238.016 22.44 240.547 22.9956C242.671 23.4638 244.121 24.6551 244.662 26.7705C244.996 28.0879 245.264 29.456 245.295 30.8098C245.385 34.6067 245.329 38.4081 245.346 42.2074C245.356 44.3909 245.812 44.9586 247.854 45.5966C248.139 45.6863 248.349 46.0187 248.593 46.2394C248.528 46.3318 248.461 46.4215 248.395 46.5136H236.65C237.083 46.043 237.273 45.6451 237.566 45.5432C239.899 44.7304 240.324 44.25 240.305 41.7925C240.274 37.7968 240.271 33.7939 240.056 29.8055C239.911 27.1078 237.784 25.5625 235.105 25.9553C234.319 26.0695 233.534 26.312 232.801 26.625C230.833 27.4618 229.589 28.6168 229.777 31.1544C230.048 34.7716 229.84 38.4253 229.862 42.0619C229.876 44.4346 230.241 44.881 232.458 45.6135C232.724 45.7008 232.91 46.0381 233.379 46.5015H221.771C221.698 46.4191 221.628 46.3366 221.555 46.2539C221.814 46.0163 222.034 45.6596 222.336 45.5626C224.398 44.898 224.814 44.3812 224.821 42.1589C224.836 37.7143 224.838 33.2674 224.829 28.8229C224.824 26.7681 224.495 26.358 222.544 25.6958C222.283 25.6085 222.073 25.3658 221.841 25.1936C222.024 25.0285 222.184 24.7715 222.397 24.7108C224.821 24.0072 227.253 23.3352 229.859 22.605L229.854 22.6025Z" fill="#FAF8F2"/>
<path d="M209.831 32.7505C209.609 31.0039 209.536 29.2207 209.123 27.5225C208.605 25.3972 207.196 24.5846 204.842 24.6961C202.983 24.7834 202.057 25.6593 201.559 27.7844C201.411 28.4103 201.305 29.0558 201.075 29.6501C200.64 30.7781 199.252 31.324 198.165 30.8582C197.263 30.4748 196.983 29.6356 197.536 28.3763C198.982 25.0868 201.747 23.4734 205.098 22.8547C206.41 22.6121 207.849 22.6703 209.169 22.9178C212.705 23.5801 214.617 26.0208 214.637 29.6865C214.658 33.5658 214.632 37.4475 214.644 41.3265C214.644 41.8456 214.671 42.3844 214.806 42.8818C215.234 44.4635 216.305 44.9657 217.862 44.4441C218.193 44.3323 218.604 44.4587 218.978 44.4756C219.012 44.689 219.049 44.9051 219.082 45.1185C217.516 45.7807 216 46.6347 214.371 47.0569C211.729 47.7434 210.133 46.4723 209.821 43.7453C209.809 43.6386 209.746 43.5392 209.64 43.2601C209.263 43.6119 208.966 43.9056 208.651 44.1796C206.526 46.038 204.167 47.3166 201.235 47.1005C199.033 46.9381 197.372 45.9458 196.68 43.7598C195.967 41.5013 196.451 39.3468 198.339 37.9884C200.304 36.5716 202.538 35.4945 204.742 34.4634C206.256 33.7549 207.924 33.3788 209.831 32.7505ZM209.647 34.2474C207.375 35.3245 205.327 36.2052 203.377 37.2702C202.685 37.6487 202.088 38.3958 201.701 39.1116C200.456 41.4213 202.025 43.9298 204.641 43.9128C206.459 43.9031 207.924 42.9788 209.352 41.9987C209.512 41.8895 209.63 41.5983 209.633 41.3898C209.652 39.1432 209.645 36.899 209.645 34.2474H209.647Z" fill="#FAF8F2"/>
<path d="M163.864 75.1529C163.671 73.6173 163.608 71.7516 163.168 69.978C162.684 68.0348 161.253 67.2707 159.085 67.3774C157.267 67.4647 156.276 68.343 155.785 70.3202C155.64 70.9072 155.567 71.5139 155.386 72.0889C155.033 73.2048 154.168 73.6876 153.07 73.6488C152.106 73.6148 151.376 73.1102 151.615 72.0355C151.811 71.1572 152.113 70.2232 152.633 69.5098C155.045 66.2008 159.677 64.6143 163.608 65.6356C166.956 66.5064 168.629 68.7288 168.667 72.4989C168.704 76.0967 168.665 79.692 168.665 83.2897C168.665 83.8552 168.66 84.4253 168.72 84.9857C168.931 86.9144 170.089 87.6397 171.907 87.0696C172.221 86.9726 172.615 87.1326 172.975 87.3681C171.189 88.7946 169.371 89.9639 167.069 89.8402C165.116 89.7357 164.069 88.6707 163.893 86.7299C163.876 86.5407 163.842 86.3516 163.791 85.9803C162.984 86.6401 162.312 87.2418 161.589 87.7706C159.716 89.1414 157.658 89.9445 155.289 89.7478C153.394 89.5926 151.832 88.8456 151.023 87.0575C150.208 85.2573 150.247 83.3651 151.453 81.7735C152.21 80.7764 153.23 79.8229 154.339 79.2844C157.325 77.8384 160.421 76.6255 163.861 75.1529H163.864ZM163.707 76.9604C161.492 77.989 159.534 78.8695 157.608 79.8157C157.156 80.0366 156.771 80.4417 156.425 80.8249C155.338 82.0235 155.101 83.6658 155.783 84.9614C156.413 86.1646 157.82 86.9629 159.363 86.5529C160.76 86.1816 162.053 85.3909 163.361 84.7235C163.562 84.6217 163.692 84.1898 163.695 83.911C163.721 81.7419 163.709 79.5707 163.709 76.9604H163.707Z" fill="#FAF8F2"/>
<path d="M244.947 86.6546C244.904 87.1398 244.996 87.6299 244.831 87.7414C243.162 88.8843 241.431 89.9614 239.299 89.8353C237.322 89.7162 236.328 88.6706 236.171 86.6983C236.157 86.514 236.135 86.3273 236.094 85.9487C235.296 86.6085 234.648 87.1786 233.962 87.7051C232.078 89.1486 229.99 89.9565 227.57 89.7526C225.629 89.5877 224.026 88.8382 223.236 86.9798C222.401 85.0195 222.534 83.0011 224.002 81.4266C225.049 80.3032 226.368 79.3158 227.751 78.6609C230.355 77.4261 233.091 76.4775 236.128 75.2668C235.949 73.753 235.903 71.8921 235.473 70.1261C234.958 68.0129 233.604 67.2706 231.264 67.3846C229.424 67.4743 228.455 68.3865 227.983 70.4826C227.877 70.9532 227.807 71.4336 227.693 71.9018C227.459 72.8674 226.825 73.4157 225.866 73.6026C224.48 73.8718 223.601 73.1077 223.866 71.7321C224.007 71.0044 224.321 70.2546 224.744 69.6433C227.087 66.2493 232.016 64.5388 236.007 65.6695C239.292 66.5987 240.902 68.8329 240.943 72.654C240.979 76.0893 240.941 79.5246 240.936 82.9599C240.936 83.4863 240.929 84.0103 240.955 84.5343C241.078 87.101 242.253 87.8387 244.947 86.6546ZM235.98 77.1373C234.491 77.7268 233.149 78.1417 231.919 78.7748C230.759 79.3716 229.54 80.0292 228.66 80.9584C226.775 82.9453 227.575 85.9463 230.065 86.5067C232.31 87.0113 234.08 85.8008 235.808 84.6022C235.913 84.5295 235.973 84.3234 235.973 84.1801C235.983 81.9022 235.98 79.624 235.98 77.1373Z" fill="#FAF8F2"/>
<path d="M273.901 45.1379C272.478 45.7662 271.105 46.5838 269.622 46.9842C266.611 47.7943 265.019 46.5887 264.654 43.3377C264.081 43.8156 263.581 44.2499 263.064 44.66C260.981 46.312 258.698 47.3797 255.953 47.0666C254.059 46.8508 252.566 46.0089 251.831 44.1772C251.07 42.28 251.232 40.3927 252.578 38.8326C253.377 37.9058 254.373 37.0108 255.465 36.5062C258.116 35.2833 260.863 34.262 263.601 33.243C264.352 32.9639 264.768 32.6899 264.637 31.8286C264.405 30.2808 264.388 28.6821 263.98 27.1877C263.485 25.3608 262.023 24.5892 259.933 24.6889C258.157 24.7738 257.123 25.6327 256.613 27.4738C256.451 28.0536 256.458 28.7185 256.173 29.2207C255.815 29.8466 255.327 30.6012 254.721 30.8267C254.114 31.0524 253.138 30.8994 252.626 30.5112C252.278 30.2469 252.227 29.2086 252.43 28.6579C253.508 25.7345 255.924 24.2206 258.657 23.1847C260.503 22.486 262.441 22.4763 264.359 22.9687C267.677 23.8227 269.465 26.0352 269.515 29.5068C269.571 33.2649 269.525 37.0229 269.544 40.7807C269.549 41.4626 269.607 42.1563 269.743 42.8234C270.066 44.4248 271.142 44.9706 272.71 44.4539C273.05 44.3421 273.468 44.4684 273.853 44.483C273.867 44.7012 273.882 44.9172 273.899 45.1355L273.901 45.1379ZM264.623 34.4026C262.559 35.2979 260.716 35.987 258.988 36.8966C258.137 37.3454 257.367 38.1097 256.804 38.9053C256.067 39.9463 256.028 41.1786 256.676 42.343C257.309 43.4786 258.326 43.9347 259.592 43.9226C261.37 43.908 262.823 43.054 264.217 42.0763C264.434 41.9235 264.603 41.5474 264.608 41.2708C264.64 39.0971 264.625 36.9232 264.625 34.4002L264.623 34.4026Z" fill="#FAF8F2"/>
<path d="M170.036 45.7203C170.016 45.98 169.997 46.2467 169.975 46.5185H158.219C158.149 46.4312 158.079 46.3464 158.011 46.2588C158.275 46.0115 158.495 45.6378 158.807 45.5335C160.907 44.8325 161.405 44.3034 161.405 42.0546C161.398 33.4542 161.352 24.8515 161.28 16.2512C161.263 14.1114 160.808 13.6504 158.746 13.0415C158.475 12.9614 158.268 12.6703 157.825 12.3088C160.919 11.6344 163.656 11.0376 166.482 10.4214C166.482 11.4573 166.482 12.4107 166.482 13.3666C166.482 22.4958 166.482 31.6227 166.484 40.7517C166.484 40.9945 166.489 41.237 166.497 41.4797C166.567 44.7377 166.857 45.0896 170.04 45.7251L170.036 45.7203Z" fill="#FAF8F2"/>
<path d="M259.196 89.0372H247.74C247.658 88.9572 247.576 88.8796 247.494 88.7996C247.736 88.5471 247.936 88.1565 248.229 88.0668C250.232 87.4603 250.792 86.9363 250.85 84.8548C250.952 81.2205 250.949 77.5815 250.923 73.9449C250.889 68.935 250.804 63.9252 250.72 58.9179C250.686 56.9552 250.166 56.3294 248.345 55.7957C248.059 55.7108 247.82 55.4632 247.559 55.2911C247.832 55.1283 248.088 54.8883 248.383 54.818C250.415 54.3328 252.45 53.8718 254.491 53.4278C254.914 53.3357 255.359 53.3405 255.861 53.2944C255.881 53.7018 255.91 54.0149 255.91 54.3303C255.883 63.5443 255.849 72.7585 255.83 81.9751C255.83 82.9431 255.917 83.9111 255.963 84.8791C256.064 87.043 256.557 87.601 258.655 88.0765C258.964 88.1468 259.215 88.4841 259.491 88.6975C259.391 88.8117 259.295 88.9257 259.196 89.0396V89.0372Z" fill="#FAF8F2"/>
<path d="M196.066 23.3109C195.679 23.7889 195.51 24.2085 195.22 24.3226C193.434 25.0333 192.411 26.4283 191.708 28.1194C189.203 34.1432 186.709 40.1719 184.226 46.2054C183.957 46.8581 183.767 47.387 182.843 47.3773C181.949 47.3676 181.813 46.8218 181.562 46.2272C179.171 40.5916 176.778 34.9558 174.363 29.3275C173.952 28.3667 173.555 27.3551 172.924 26.5471C172.284 25.7249 171.348 25.1378 170.567 24.4171C170.284 24.1576 170.082 23.8107 169.675 23.2939H181.4C181.697 24.0484 181.33 24.1455 180.703 24.2547C178.646 24.6114 178.146 25.3536 178.932 27.2678C180.75 31.6929 182.695 36.0647 184.586 40.4534C184.709 40.4267 184.83 40.4291 184.845 40.3901C186.387 36.3678 187.924 32.3454 189.457 28.3182C189.542 28.0927 189.6 27.8573 189.663 27.6221C190.197 25.6351 189.769 24.8781 187.842 24.2644C187.513 24.16 187.255 23.8398 186.962 23.619L187.151 23.3085H196.066V23.3109Z" fill="#FAF8F2"/>
<path d="M215.771 88.4476C215.497 88.6537 215.229 89.0395 214.953 89.0419C211.047 89.0904 207.143 89.1026 203.236 89.071C202.951 89.071 202.671 88.678 202.194 88.3239C205.323 87.4481 205.666 87.055 205.697 84.1971C205.743 79.9541 205.743 75.7109 205.733 71.4676C205.729 69.3085 205.569 69.1412 203.5 68.3478C203.239 68.2484 203.019 68.0374 202.463 67.6662C205.446 66.8146 208.076 66.065 210.774 65.2935V71.4167C211.081 71.0796 211.255 70.9121 211.4 70.7229C212.297 69.5367 213.049 68.1926 214.124 67.2028C214.963 66.4288 216.153 65.8999 217.274 65.6017C218.773 65.2037 219.844 65.9581 220.262 67.3386C220.557 68.3114 220.622 69.3037 219.885 70.0777C219.119 70.883 218.113 70.9339 217.083 70.5944C216.97 70.5556 216.846 70.5459 216.733 70.5095C213.428 69.4467 210.827 71.327 210.786 74.8568C210.75 77.9672 210.769 81.0797 210.776 84.1922C210.781 86.9896 211.608 87.8581 214.402 88.0424C214.763 88.0667 215.123 88.0764 215.483 88.0909C215.582 88.2097 215.679 88.3264 215.778 88.4452L215.771 88.4476Z" fill="#FAF8F2"/>
<path d="M143.36 24.8174C145.985 24.1041 148.612 23.3884 151.335 22.6484C151.335 24.8319 151.335 26.928 151.335 29.024C151.337 33.3085 151.332 37.5954 151.351 41.8798C151.363 44.3689 151.772 44.8469 154.141 45.5164C154.477 45.6109 154.738 45.9798 155.033 46.2198C154.958 46.334 154.883 46.4456 154.811 46.5595C154.533 46.5595 154.257 46.5595 153.979 46.5595C150.399 46.5595 146.816 46.5595 143.236 46.5595C143.159 46.4674 143.084 46.3753 143.007 46.2829C143.246 46.0234 143.449 45.5964 143.734 45.5285C145.658 45.0797 146.442 43.852 146.439 41.9356C146.43 37.4887 146.5 33.0417 146.468 28.597C146.454 26.8285 145.953 26.3142 144.251 25.7272C143.899 25.6057 143.582 25.3753 143.248 25.1935C143.287 25.0671 143.323 24.941 143.362 24.8125L143.36 24.8174Z" fill="#FAF8F2"/>
<path d="M151.574 15.3994C151.559 17.1728 150.319 18.4004 148.603 18.3446C146.928 18.2888 145.583 16.9156 145.629 15.3072C145.678 13.6235 146.993 12.3668 148.695 12.3765C150.442 12.3862 151.591 13.592 151.574 15.3994Z" fill="#FAF8F2"/>
<path d="M65.4843 22.5141C66.322 21.0728 67.1085 19.7193 67.9339 18.2951C65.2439 16.6245 62.3889 15.5441 59.4099 14.8174C51.9856 13.0103 44.7359 13.2322 37.8872 17.0269C33.1601 19.6461 29.8921 23.4433 28.9476 28.9306C27.7533 35.8785 30.8948 42.2925 37.0666 45.7094C41.0336 47.9065 45.3917 48.9526 49.7177 50.1061C53.1435 51.0183 56.6081 51.8207 59.9756 52.9158C64.2122 54.2936 67.1305 57.0371 67.5359 61.7515C67.968 66.7532 66.6886 71.0944 62.3282 74.0939C59.791 75.8401 56.9335 76.7959 53.9957 77.5814C49.1011 78.8908 46.5206 82.1954 46.4573 87.2803C46.4162 90.6872 46.45 94.0941 46.45 97.8255C43.6061 97.8255 39.5889 96.4843 39.5889 96.4843C20.681 90.9214 8.98122 78.3372 5.43415 58.9905C2.56445 43.3364 6.86417 29.2524 18.0419 17.6951C25.1046 10.3911 33.8349 6.12809 43.8864 4.72093C66.4967 1.55054 87.9347 14.7881 94.8224 36.3322C103.223 62.6074 88.1045 89.6995 62.1074 96.494C58.6162 97.406 55.19 97.833 51.369 97.833C51.369 97.558 51.3641 97.2888 51.369 97.0231C51.4248 93.6552 51.3714 90.2798 51.5946 86.9243C51.772 84.2756 53.452 82.7637 55.9697 82.0322C58.133 81.4029 60.3349 80.7906 62.3572 79.8273C71.7651 75.357 74.3702 66.4605 72.0081 57.8833C70.8157 53.5545 67.6744 50.7232 63.6806 49.1015C60.3397 47.7455 56.7709 46.9601 53.3063 45.9043C49.298 44.6822 45.2264 43.6313 41.3151 42.1461C37.6929 40.7707 34.9568 38.2564 34.1287 34.2103C33.2159 29.7522 34.6313 26.0259 37.965 23.0482C41.172 20.1827 45.0614 18.9389 49.2763 18.6536C54.9984 18.2658 60.3276 19.6461 65.4819 22.5141H65.4843ZM63.2653 33.969C63.2822 30.9377 60.8519 28.3916 57.9022 28.3525C54.9329 28.3111 52.3669 30.8133 52.3328 33.7786C52.2987 36.7345 54.814 39.3003 57.7833 39.3417C60.67 39.3805 63.2484 36.8541 63.2628 33.969H63.2653Z" fill="#FAF8F2"/>
<path d="M23.6633 115.423V107.445H26.7636C27.4602 107.445 28.0543 107.555 28.5465 107.776C29.0387 107.996 29.4171 108.315 29.6821 108.733C29.9472 109.151 30.0796 109.649 30.0796 110.226C30.0796 110.803 29.9472 111.301 29.6821 111.719C29.4171 112.129 29.0387 112.448 28.5465 112.676C28.0543 112.897 27.4602 113.007 26.7636 113.007H24.2879L24.799 112.471V115.423H23.6633ZM24.799 112.585L24.2879 112.015H26.7295C27.4563 112.015 28.0053 111.86 28.3762 111.548C28.7548 111.236 28.944 110.796 28.944 110.226C28.944 109.656 28.7548 109.216 28.3762 108.904C28.0053 108.592 27.4563 108.437 26.7295 108.437H24.2879L24.799 107.867V112.585ZM35.5384 115.514C34.9326 115.514 34.3534 115.423 33.8008 115.241C33.2483 115.051 32.8129 114.808 32.4949 114.511L32.9151 113.622C33.2178 113.888 33.6039 114.108 34.0734 114.283C34.5429 114.458 35.0312 114.545 35.5384 114.545C36.0001 114.545 36.3749 114.492 36.6626 114.386C36.9504 114.279 37.1623 114.135 37.2986 113.953C37.4349 113.763 37.503 113.55 37.503 113.315C37.503 113.041 37.4121 112.821 37.2304 112.654C37.0562 112.486 36.8255 112.353 36.5377 112.255C36.2577 112.148 35.9472 112.057 35.6065 111.981C35.2658 111.905 34.9213 111.818 34.5731 111.719C34.2324 111.613 33.9183 111.48 33.6305 111.32C33.3505 111.161 33.1233 110.948 32.9491 110.682C32.7749 110.408 32.6879 110.059 32.6879 109.633C32.6879 109.223 32.794 108.847 33.0059 108.505C33.2255 108.156 33.5585 107.878 34.0053 107.673C34.4595 107.46 35.0348 107.354 35.7314 107.354C36.1932 107.354 36.6513 107.415 37.1055 107.536C37.5598 107.658 37.9534 107.833 38.2866 108.061L37.9118 108.972C37.5711 108.744 37.2116 108.581 36.833 108.482C36.4543 108.376 36.0873 108.323 35.7314 108.323C35.2846 108.323 34.9176 108.38 34.6299 108.494C34.3421 108.608 34.1302 108.76 33.9939 108.95C33.8651 109.139 33.8008 109.352 33.8008 109.588C33.8008 109.869 33.8878 110.093 34.062 110.26C34.2437 110.427 34.4747 110.56 34.7548 110.659C35.0425 110.758 35.3567 110.849 35.6973 110.933C36.038 111.008 36.3787 111.096 36.7194 111.195C37.0676 111.293 37.3819 111.423 37.662 111.582C37.9497 111.742 38.1805 111.954 38.3547 112.22C38.5289 112.486 38.6159 112.828 38.6159 113.246C38.6159 113.649 38.5062 114.025 38.2866 114.374C38.0669 114.716 37.7262 114.994 37.2645 115.206C36.8103 115.412 36.235 115.514 35.5384 115.514ZM41.6376 115.423V107.445H42.7733V115.423H41.6376ZM50.0705 115.514C49.4648 115.514 48.9047 115.415 48.3898 115.218C47.8826 115.013 47.4397 114.728 47.0611 114.363C46.6902 113.991 46.3986 113.558 46.1867 113.064C45.9748 112.57 45.8687 112.027 45.8687 111.434C45.8687 110.841 45.9748 110.298 46.1867 109.804C46.3986 109.31 46.6938 108.881 47.0724 108.516C47.4511 108.144 47.894 107.859 48.4011 107.662C48.916 107.457 49.4761 107.354 50.0819 107.354C50.6951 107.354 51.259 107.46 51.7739 107.673C52.2963 107.878 52.7392 108.186 53.1026 108.596L52.3645 109.314C52.0617 108.995 51.721 108.76 51.3424 108.608C50.9638 108.448 50.5588 108.368 50.1273 108.368C49.6805 108.368 49.2642 108.444 48.8781 108.596C48.4995 108.748 48.1701 108.961 47.8901 109.234C47.6101 109.508 47.3904 109.835 47.2314 110.215C47.0799 110.587 47.0043 110.993 47.0043 111.434C47.0043 111.875 47.0799 112.285 47.2314 112.665C47.3904 113.037 47.6101 113.36 47.8901 113.634C48.1701 113.907 48.4995 114.12 48.8781 114.272C49.2642 114.424 49.6805 114.5 50.1273 114.5C50.5588 114.5 50.9638 114.424 51.3424 114.272C51.721 114.112 52.0617 113.869 52.3645 113.542L53.1026 114.26C52.7392 114.671 52.2963 114.982 51.7739 115.195C51.259 115.408 50.6912 115.514 50.0705 115.514ZM59.5078 115.514C58.902 115.514 58.3381 115.412 57.8157 115.206C57.3008 115.001 56.8541 114.716 56.4757 114.352C56.0971 113.979 55.8018 113.546 55.5899 113.052C55.3777 112.558 55.2719 112.019 55.2719 111.434C55.2719 110.849 55.3777 110.31 55.5899 109.816C55.8018 109.322 56.0971 108.893 56.4757 108.528C56.8541 108.156 57.3008 107.867 57.8157 107.662C58.3304 107.457 58.8946 107.354 59.5078 107.354C60.1133 107.354 60.6698 107.457 61.1772 107.662C61.6918 107.859 62.1386 108.144 62.5172 108.516C62.9033 108.881 63.1986 109.31 63.403 109.804C63.6149 110.298 63.721 110.841 63.721 111.434C63.721 112.027 63.6149 112.57 63.403 113.064C63.1986 113.558 62.9033 113.991 62.5172 114.363C62.1386 114.728 61.6918 115.013 61.1772 115.218C60.6698 115.415 60.1133 115.514 59.5078 115.514ZM59.5078 114.5C59.9468 114.5 60.3518 114.424 60.7229 114.272C61.1013 114.12 61.427 113.907 61.6996 113.634C61.9796 113.353 62.1954 113.026 62.3469 112.654C62.5058 112.281 62.5853 111.875 62.5853 111.434C62.5853 110.993 62.5058 110.587 62.3469 110.215C62.1954 109.842 61.9796 109.519 61.6996 109.246C61.427 108.965 61.1013 108.748 60.7229 108.596C60.3518 108.444 59.9468 108.368 59.5078 108.368C59.061 108.368 58.6483 108.444 58.27 108.596C57.8988 108.748 57.5734 108.965 57.2933 109.246C57.013 109.519 56.7936 109.842 56.6347 110.215C56.4832 110.587 56.4075 110.993 56.4075 111.434C56.4075 111.875 56.4832 112.281 56.6347 112.654C56.7936 113.026 57.013 113.353 57.2933 113.634C57.5734 113.907 57.8988 114.12 58.27 114.272C58.6483 114.424 59.061 114.5 59.5078 114.5ZM66.8193 115.423V107.445H67.9549V114.431H72.2589V115.423H66.8193ZM78.3693 115.514C77.7636 115.514 77.1996 115.412 76.6772 115.206C76.1624 115.001 75.7156 114.716 75.3372 114.352C74.9586 113.979 74.6633 113.546 74.4514 113.052C74.2393 112.558 74.1334 112.019 74.1334 111.434C74.1334 110.849 74.2393 110.31 74.4514 109.816C74.6633 109.322 74.9586 108.893 75.3372 108.528C75.7156 108.156 76.1624 107.867 76.6772 107.662C77.1919 107.457 77.7561 107.354 78.3693 107.354C78.9748 107.354 79.5313 107.457 80.0387 107.662C80.5534 107.859 81.0001 108.144 81.3787 108.516C81.7649 108.881 82.0601 109.31 82.2645 109.804C82.4764 110.298 82.5825 110.841 82.5825 111.434C82.5825 112.027 82.4764 112.57 82.2645 113.064C82.0601 113.558 81.7649 113.991 81.3787 114.363C81.0001 114.728 80.5534 115.013 80.0387 115.218C79.5313 115.415 78.9748 115.514 78.3693 115.514ZM78.3693 114.5C78.8084 114.5 79.2133 114.424 79.5845 114.272C79.9628 114.12 80.2885 113.907 80.5611 113.634C80.8411 113.353 81.0569 113.026 81.2084 112.654C81.3674 112.281 81.4469 111.875 81.4469 111.434C81.4469 110.993 81.3674 110.587 81.2084 110.215C81.0569 109.842 80.8411 109.519 80.5611 109.246C80.2885 108.965 79.9628 108.748 79.5845 108.596C79.2133 108.444 78.8084 108.368 78.3693 108.368C77.9226 108.368 77.5099 108.444 77.1315 108.596C76.7604 108.748 76.4349 108.965 76.1549 109.246C75.8746 109.519 75.6552 109.842 75.4962 110.215C75.3447 110.587 75.2691 110.993 75.2691 111.434C75.2691 111.875 75.3447 112.281 75.4962 112.654C75.6552 113.026 75.8746 113.353 76.1549 113.634C76.4349 113.907 76.7604 114.12 77.1315 114.272C77.5099 114.424 77.9226 114.5 78.3693 114.5ZM89.2694 115.514C88.6562 115.514 88.0922 115.415 87.5773 115.218C87.0627 115.013 86.6159 114.728 86.2373 114.363C85.8589 113.991 85.5636 113.558 85.3515 113.064C85.1396 112.57 85.0335 112.027 85.0335 111.434C85.0335 110.841 85.1396 110.298 85.3515 109.804C85.5636 109.31 85.8589 108.881 86.2373 108.516C86.6234 108.144 87.074 107.859 87.5887 107.662C88.1036 107.457 88.6714 107.354 89.2921 107.354C89.9206 107.354 90.4959 107.457 91.0183 107.662C91.5407 107.867 91.9836 108.175 92.347 108.585L91.6429 109.291C91.3174 108.972 90.9615 108.741 90.5754 108.596C90.197 108.444 89.7843 108.368 89.3375 108.368C88.8833 108.368 88.4595 108.444 88.0657 108.596C87.6795 108.748 87.3427 108.961 87.0549 109.234C86.7749 109.508 86.5553 109.835 86.3963 110.215C86.245 110.587 86.1692 110.993 86.1692 111.434C86.1692 111.867 86.245 112.274 86.3963 112.654C86.5553 113.026 86.7749 113.353 87.0549 113.634C87.3427 113.907 87.6795 114.12 88.0657 114.272C88.4518 114.424 88.8719 114.5 89.3262 114.5C89.7502 114.5 90.1552 114.435 90.5413 114.306C90.9352 114.169 91.2986 113.945 91.6315 113.634L92.2788 114.5C91.8852 114.834 91.4235 115.089 90.8934 115.263C90.371 115.43 89.8297 115.514 89.2694 115.514ZM91.1886 114.352V111.388H92.2788V114.5L91.1886 114.352ZM95.8159 115.423V107.445H96.9516V115.423H95.8159ZM99.4905 115.423L103.09 107.445H104.215L107.826 115.423H106.634L103.42 108.083H103.874L100.66 115.423H99.4905ZM101.024 113.428L101.33 112.517H105.805L106.134 113.428H101.024ZM114.787 115.423V107.445H117.887C118.584 107.445 119.178 107.555 119.67 107.776C120.162 107.996 120.541 108.315 120.806 108.733C121.071 109.151 121.203 109.649 121.203 110.226C121.203 110.803 121.071 111.301 120.806 111.719C120.541 112.129 120.162 112.448 119.67 112.676C119.178 112.897 118.584 113.007 117.887 113.007H115.412L115.923 112.471V115.423H114.787ZM115.923 112.585L115.412 112.015H117.853C118.58 112.015 119.129 111.86 119.5 111.548C119.878 111.236 120.068 110.796 120.068 110.226C120.068 109.656 119.878 109.216 119.5 108.904C119.129 108.592 118.58 108.437 117.853 108.437H115.412L115.923 107.867V112.585ZM124.235 115.423V107.445H127.335C128.031 107.445 128.626 107.555 129.118 107.776C129.61 107.996 129.988 108.315 130.253 108.733C130.518 109.151 130.651 109.649 130.651 110.226C130.651 110.803 130.518 111.301 130.253 111.719C129.988 112.129 129.61 112.444 129.118 112.665C128.626 112.885 128.031 112.995 127.335 112.995H124.859L125.37 112.471V115.423H124.235ZM129.549 115.423L127.528 112.528H128.743L130.787 115.423H129.549ZM125.37 112.585L124.859 112.027H127.301C128.028 112.027 128.576 111.871 128.947 111.559C129.326 111.24 129.515 110.796 129.515 110.226C129.515 109.656 129.326 109.216 128.947 108.904C128.576 108.592 128.028 108.437 127.301 108.437H124.859L125.37 107.867V112.585ZM134.882 110.887H138.97V111.856H134.882V110.887ZM134.984 114.431H139.617V115.423H133.848V107.445H139.458V108.437H134.984V114.431ZM145.135 115.514C144.53 115.514 143.951 115.423 143.398 115.241C142.845 115.051 142.41 114.808 142.092 114.511L142.512 113.622C142.815 113.888 143.201 114.108 143.67 114.283C144.14 114.458 144.628 114.545 145.135 114.545C145.597 114.545 145.972 114.492 146.26 114.386C146.547 114.279 146.759 114.135 146.896 113.953C147.032 113.763 147.1 113.55 147.1 113.315C147.1 113.041 147.009 112.821 146.828 112.654C146.654 112.486 146.423 112.353 146.135 112.255C145.855 112.148 145.544 112.057 145.204 111.981C144.863 111.905 144.519 111.818 144.17 111.719C143.829 111.613 143.515 111.48 143.228 111.32C142.948 111.161 142.72 110.948 142.546 110.682C142.372 110.408 142.285 110.059 142.285 109.633C142.285 109.223 142.391 108.847 142.603 108.505C142.823 108.156 143.156 107.878 143.602 107.673C144.057 107.46 144.632 107.354 145.328 107.354C145.79 107.354 146.248 107.415 146.703 107.536C147.157 107.658 147.551 107.833 147.884 108.061L147.509 108.972C147.168 108.744 146.809 108.581 146.43 108.482C146.052 108.376 145.684 108.323 145.328 108.323C144.882 108.323 144.515 108.38 144.227 108.494C143.939 108.608 143.727 108.76 143.591 108.95C143.462 109.139 143.398 109.352 143.398 109.588C143.398 109.869 143.485 110.093 143.659 110.26C143.841 110.427 144.072 110.56 144.352 110.659C144.64 110.758 144.954 110.849 145.294 110.933C145.635 111.008 145.976 111.096 146.316 111.195C146.665 111.293 146.979 111.423 147.259 111.582C147.547 111.742 147.778 111.954 147.952 112.22C148.126 112.486 148.213 112.828 148.213 113.246C148.213 113.649 148.103 114.025 147.884 114.374C147.664 114.716 147.324 114.994 146.862 115.206C146.407 115.412 145.832 115.514 145.135 115.514ZM152.268 110.887H156.357V111.856H152.268V110.887ZM152.371 114.431H157.004V115.423H151.235V107.445H156.845V108.437H152.371V114.431ZM160.205 115.423V107.445H161.137L166.395 113.998H165.906V107.445H167.042V115.423H166.111L160.853 108.87H161.341V115.423H160.205ZM174.339 115.514C173.733 115.514 173.173 115.415 172.658 115.218C172.151 115.013 171.708 114.728 171.329 114.363C170.958 113.991 170.667 113.558 170.455 113.064C170.243 112.57 170.137 112.027 170.137 111.434C170.137 110.841 170.243 110.298 170.455 109.804C170.667 109.31 170.962 108.881 171.341 108.516C171.719 108.144 172.162 107.859 172.669 107.662C173.184 107.457 173.744 107.354 174.35 107.354C174.963 107.354 175.527 107.46 176.042 107.673C176.564 107.878 177.007 108.186 177.371 108.596L176.633 109.314C176.33 108.995 175.989 108.76 175.611 108.608C175.232 108.448 174.827 108.368 174.395 108.368C173.949 108.368 173.532 108.444 173.146 108.596C172.768 108.748 172.438 108.961 172.158 109.234C171.878 109.508 171.659 109.835 171.5 110.215C171.348 110.587 171.272 110.993 171.272 111.434C171.272 111.875 171.348 112.285 171.5 112.665C171.659 113.037 171.878 113.36 172.158 113.634C172.438 113.907 172.768 114.12 173.146 114.272C173.532 114.424 173.949 114.5 174.395 114.5C174.827 114.5 175.232 114.424 175.611 114.272C175.989 114.112 176.33 113.869 176.633 113.542L177.371 114.26C177.007 114.671 176.564 114.982 176.042 115.195C175.527 115.408 174.959 115.514 174.339 115.514ZM180.354 115.423V107.445H181.489V115.423H180.354ZM184.028 115.423L187.628 107.445H188.752L192.363 115.423H191.171L187.957 108.083H188.411L185.198 115.423H184.028ZM185.561 113.428L185.868 112.517H190.342L190.671 113.428H185.561ZM194.912 115.423V107.445H196.048V114.431H200.352V115.423H194.912ZM208.464 110.887H212.552V111.856H208.464V110.887ZM208.566 114.431H213.199V115.423H207.43V107.445H213.04V108.437H208.566V114.431ZM224.402 115.514C223.796 115.514 223.232 115.412 222.71 115.206C222.195 115.001 221.748 114.716 221.37 114.352C220.991 113.979 220.696 113.546 220.484 113.052C220.272 112.558 220.166 112.019 220.166 111.434C220.166 110.849 220.272 110.31 220.484 109.816C220.696 109.322 220.991 108.893 221.37 108.528C221.748 108.156 222.195 107.867 222.71 107.662C223.225 107.457 223.789 107.354 224.402 107.354C225.008 107.354 225.564 107.457 226.071 107.662C226.586 107.859 227.033 108.144 227.411 108.516C227.797 108.881 228.093 109.31 228.297 109.804C228.509 110.298 228.615 110.841 228.615 111.434C228.615 112.027 228.509 112.57 228.297 113.064C228.093 113.558 227.797 113.991 227.411 114.363C227.033 114.728 226.586 115.013 226.071 115.218C225.564 115.415 225.008 115.514 224.402 115.514ZM224.402 114.5C224.841 114.5 225.246 114.424 225.617 114.272C225.996 114.12 226.321 113.907 226.594 113.634C226.874 113.353 227.089 113.026 227.241 112.654C227.4 112.281 227.479 111.875 227.479 111.434C227.479 110.993 227.4 110.587 227.241 110.215C227.089 109.842 226.874 109.519 226.594 109.246C226.321 108.965 225.996 108.748 225.617 108.596C225.246 108.444 224.841 108.368 224.402 108.368C223.955 108.368 223.543 108.444 223.164 108.596C222.793 108.748 222.467 108.965 222.187 109.246C221.907 109.519 221.688 109.842 221.529 110.215C221.377 110.587 221.302 110.993 221.302 111.434C221.302 111.875 221.377 112.281 221.529 112.654C221.688 113.026 221.907 113.353 222.187 113.634C222.467 113.907 222.793 114.12 223.164 114.272C223.543 114.424 223.955 114.5 224.402 114.5ZM231.714 115.423V107.445H232.645L237.903 113.998H237.414V107.445H238.55V115.423H237.619L232.361 108.87H232.849V115.423H231.714ZM242.292 115.423V107.445H243.427V114.431H247.731V115.423H242.292ZM250.398 115.423V107.445H251.534V115.423H250.398ZM255.277 115.423V107.445H256.207L261.465 113.998H260.977V107.445H262.112V115.423H261.182L255.924 108.87H256.412V115.423H255.277ZM266.889 110.887H270.977V111.856H266.889V110.887ZM266.991 114.431H271.622V115.423H265.855V107.445H271.465V108.437H266.991V114.431Z" fill="#F3EFE1"/>
</svg>
