<svg width="67" height="21" viewBox="0 0 67 21" fill="none" xmlns="http://www.w3.org/2000/svg">
<g filter="url(#filter0_ddddi_28050_476)">
<rect x="2.23999" y="2.24023" width="16" height="16" rx="4.8" fill="#FAFAFA" shape-rendering="crispEdges"/>
<rect x="2.11999" y="2.12023" width="16.24" height="16.24" rx="4.92" stroke="#D0D5DD" stroke-opacity="0.64" stroke-width="0.24" shape-rendering="crispEdges"/>
<path d="M12.4924 7.36061H12.3936C11.7933 7.36016 11.1927 7.35879 10.5924 7.36335C10.5461 7.36381 10.4864 7.39435 10.4555 7.4331C9.7913 8.26735 9.13002 9.10433 8.46915 9.94177C7.87375 10.6962 7.27979 11.4521 6.68459 12.2068C6.29219 12.7041 5.8969 13.1985 5.50697 13.6984C5.3472 13.9031 5.1475 13.9908 4.90889 13.9899C4.7168 13.9892 4.52451 13.9913 4.33243 13.9881C4.27437 13.9881 4.26559 13.9779 4.24781 13.9519C4.23471 13.921 4.23471 13.9051 4.27437 13.8545C4.65195 13.3731 5.032 12.894 5.41103 12.414C5.87343 11.8282 6.33501 11.2417 6.79762 10.6561C7.24664 10.0876 7.69711 9.52054 8.14613 8.95184C8.54533 8.44605 8.94308 7.93889 9.34187 7.43287C9.57863 7.13268 9.81498 6.83203 10.0557 6.53571C10.0797 6.50608 10.1324 6.49286 10.172 6.49263C10.8617 6.49012 11.5512 6.49058 12.2408 6.49058C12.8 6.49058 13.3594 6.49058 13.9186 6.49081C13.9527 6.49081 13.9883 6.48762 14.0209 6.49628C14.1248 6.52454 14.1553 6.61686 14.0861 6.7078C13.9184 6.92845 13.7464 7.14521 13.5754 7.36267C13.179 7.86641 12.7823 8.36923 12.3858 8.87274C11.9895 9.37626 11.5934 9.88 11.1973 10.3835C10.7447 10.9586 10.2922 11.5339 9.83927 12.1085C9.63195 12.3716 9.4234 12.6337 9.21587 12.8965C9.17593 12.9471 9.13764 12.9991 9.08535 13.0675H14.5535C14.0215 12.3878 13.4988 11.7197 12.9721 11.047C12.7434 11.3258 12.5208 11.597 12.2983 11.8683C12.2061 11.9807 12.1171 12.0967 12.0204 12.2043C11.8979 12.3406 11.7496 12.4194 11.5717 12.4188C11.3352 12.4178 11.0721 12.4166 10.8125 12.4166C10.8133 12.4166 10.9043 12.3066 10.9043 12.3066C11.3051 11.8072 11.7072 11.3092 12.1085 10.8102C12.3069 10.5636 12.5038 10.3156 12.7024 10.0692C12.7389 10.0241 12.7759 9.97755 12.8196 9.94245C12.9433 9.84375 13.065 9.85287 13.1675 9.97846C13.3859 10.2458 13.5994 10.5182 13.8136 10.7897C14.2644 11.3616 14.7141 11.9344 15.1647 12.5063C15.5096 12.9437 15.8563 13.3793 16.1995 13.8183C16.2252 13.8511 16.2477 13.8982 16.2374 13.9324C16.2169 13.9893 16.1334 13.9881 16.1334 13.9881C13.2754 13.9899 10.4181 13.9912 7.55992 13.9893C7.55992 13.9893 7.47757 13.9893 7.46364 13.953C7.44669 13.8982 7.47249 13.8529 7.49761 13.8201C7.7951 13.4326 8.0961 13.0485 8.39606 12.6633C8.85497 12.0743 9.31325 11.4847 9.77257 10.8961C10.1872 10.365 10.6029 9.83486 11.0181 9.30423C11.5098 8.67603 12.0012 8.04784 12.4924 7.41919L12.5401 7.36061H12.4924Z" fill="#2F3338"/>
</g>
<path d="M20.534 5.44023H25.574V5.74823H24.09V14.9322H24.594C25.3873 14.9322 26.0173 14.6896 26.484 14.2042C26.96 13.7189 27.4407 12.9722 27.926 11.9642H28.22L27.954 15.2402H20.534V14.9322H21.36V5.74823H20.534V5.44023ZM35.4571 10.9142V9.87823C35.4571 8.17023 35.3731 7.09223 35.2051 6.64423C35.0184 6.1309 34.7524 5.81357 34.4071 5.69223C34.2111 5.61757 33.9731 5.58023 33.6931 5.58023C33.4131 5.58023 33.1704 5.61757 32.9651 5.69223C32.7691 5.7669 32.6058 5.89757 32.4751 6.08423C32.3444 6.2709 32.2371 6.4669 32.1531 6.67223C32.0784 6.87757 32.0178 7.1669 31.9711 7.54023C31.9151 8.08157 31.8871 8.87957 31.8871 9.93423V10.9422C31.8871 12.0809 31.9291 12.8929 32.0131 13.3782C32.1064 13.8542 32.2184 14.1949 32.3491 14.4002C32.6384 14.8576 33.0864 15.0862 33.6931 15.0862C34.4304 15.0862 34.9064 14.7782 35.1211 14.1622C35.3451 13.5369 35.4571 12.4542 35.4571 10.9142ZM33.6651 15.3802C32.1064 15.3802 30.9398 14.9602 30.1651 14.1202C29.3998 13.2709 29.0171 12.0482 29.0171 10.4522C29.0171 8.8469 29.4278 7.5869 30.2491 6.67223C31.0798 5.74823 32.2511 5.28623 33.7631 5.28623C35.2751 5.28623 36.4138 5.7249 37.1791 6.60223C37.9538 7.47023 38.3411 8.7069 38.3411 10.3122C38.3411 11.9176 37.9491 13.1636 37.1651 14.0502C36.3904 14.9369 35.2238 15.3802 33.6651 15.3802ZM44.5158 5.56623C43.0691 5.56623 42.3458 6.96157 42.3458 9.75223V10.8582C42.3458 12.1836 42.5371 13.2242 42.9198 13.9802C43.3024 14.7269 43.8671 15.1002 44.6138 15.1002C45.6404 15.1002 46.5831 14.1016 47.4418 12.1042H47.6938L47.5958 15.2262H47.4418C47.3858 15.1236 47.3344 15.0536 47.2878 15.0162C47.2411 14.9696 47.1711 14.9462 47.0778 14.9462C46.9938 14.9462 46.6578 15.0209 46.0698 15.1702C45.4818 15.3102 44.8844 15.3802 44.2778 15.3802C42.7564 15.3802 41.5758 14.9696 40.7358 14.1482C39.9051 13.3269 39.4898 12.0949 39.4898 10.4522C39.4898 8.80023 39.9238 7.52623 40.7918 6.63023C41.6691 5.73423 42.8451 5.28623 44.3198 5.28623C44.8891 5.28623 45.4444 5.3609 45.9858 5.51023C46.5364 5.65023 46.8584 5.72023 46.9518 5.72023C47.0451 5.72023 47.1151 5.70157 47.1618 5.66423C47.2084 5.61757 47.2598 5.5429 47.3158 5.44023H47.4698L47.5818 8.47823H47.3298C46.9098 7.53557 46.4758 6.8169 46.0278 6.32223C45.5891 5.81823 45.0851 5.56623 44.5158 5.56623ZM52.0203 12.2582C52.0203 13.1169 52.165 13.7749 52.4543 14.2322C52.753 14.6896 53.285 14.9182 54.0503 14.9182C54.8157 14.9182 55.4037 14.6802 55.8143 14.2042C56.225 13.7282 56.4303 13.0049 56.4303 12.0342V5.70623H55.5203V5.44023H57.5643V5.70623H56.7943V11.9362C56.7943 13.0936 56.5377 13.9569 56.0243 14.5262C55.511 15.0956 54.601 15.3802 53.2943 15.3802C51.997 15.3802 51.003 15.1096 50.3123 14.5682C49.631 14.0269 49.2903 13.0982 49.2903 11.7822V5.70623H48.5203V5.44023H52.9303V5.70623H52.0203V12.2582ZM65.3355 5.44023V5.74823L61.1915 14.9182H61.6675C62.5075 14.9182 63.2449 14.6522 63.8795 14.1202C64.5235 13.5789 64.9855 12.8136 65.2655 11.8242H65.5175L65.3495 15.2402H58.1815V14.9742L62.3675 5.74823H61.7935C60.9629 5.74823 60.3329 5.93023 59.9035 6.29423C59.4742 6.65823 58.9889 7.4049 58.4475 8.53423H58.1955L58.4055 5.44023H65.3355Z" fill="#FAF8F2"/>
<defs>
<filter id="filter0_ddddi_28050_476" x="0" y="0" width="20.48" height="20.4805" filterUnits="userSpaceOnUse" color-interpolation-filters="sRGB">
<feFlood flood-opacity="0" result="BackgroundImageFix"/>
<feColorMatrix in="SourceAlpha" type="matrix" values="0 0 0 0 0 0 0 0 0 0 0 0 0 0 0 0 0 0 127 0" result="hardAlpha"/>
<feOffset/>
<feGaussianBlur stdDeviation="1"/>
<feComposite in2="hardAlpha" operator="out"/>
<feColorMatrix type="matrix" values="0 0 0 0 0.4 0 0 0 0 0.439216 0 0 0 0 0.521569 0 0 0 0.08 0"/>
<feBlend mode="normal" in2="BackgroundImageFix" result="effect1_dropShadow_28050_476"/>
<feColorMatrix in="SourceAlpha" type="matrix" values="0 0 0 0 0 0 0 0 0 0 0 0 0 0 0 0 0 0 127 0" result="hardAlpha"/>
<feOffset/>
<feGaussianBlur stdDeviation="1"/>
<feComposite in2="hardAlpha" operator="out"/>
<feColorMatrix type="matrix" values="0 0 0 0 0.4 0 0 0 0 0.439216 0 0 0 0 0.521569 0 0 0 0.12 0"/>
<feBlend mode="plus-darker" in2="effect1_dropShadow_28050_476" result="effect2_dropShadow_28050_476"/>
<feColorMatrix in="SourceAlpha" type="matrix" values="0 0 0 0 0 0 0 0 0 0 0 0 0 0 0 0 0 0 127 0" result="hardAlpha"/>
<feOffset/>
<feGaussianBlur stdDeviation="1"/>
<feComposite in2="hardAlpha" operator="out"/>
<feColorMatrix type="matrix" values="0 0 0 0 0.4 0 0 0 0 0.439216 0 0 0 0 0.521569 0 0 0 0.04 0"/>
<feBlend mode="plus-darker" in2="effect2_dropShadow_28050_476" result="effect3_dropShadow_28050_476"/>
<feColorMatrix in="SourceAlpha" type="matrix" values="0 0 0 0 0 0 0 0 0 0 0 0 0 0 0 0 0 0 127 0" result="hardAlpha"/>
<feOffset/>
<feGaussianBlur stdDeviation="1"/>
<feComposite in2="hardAlpha" operator="out"/>
<feColorMatrix type="matrix" values="0 0 0 0 0.4 0 0 0 0 0.439216 0 0 0 0 0.521569 0 0 0 0.1 0"/>
<feBlend mode="plus-darker" in2="effect3_dropShadow_28050_476" result="effect4_dropShadow_28050_476"/>
<feBlend mode="normal" in="SourceGraphic" in2="effect4_dropShadow_28050_476" result="shape"/>
<feColorMatrix in="SourceAlpha" type="matrix" values="0 0 0 0 0 0 0 0 0 0 0 0 0 0 0 0 0 0 127 0" result="hardAlpha"/>
<feOffset dy="0.4"/>
<feGaussianBlur stdDeviation="0.2"/>
<feComposite in2="hardAlpha" operator="arithmetic" k2="-1" k3="1"/>
<feColorMatrix type="matrix" values="0 0 0 0 1 0 0 0 0 1 0 0 0 0 1 0 0 0 0.12 0"/>
<feBlend mode="normal" in2="shape" result="effect5_innerShadow_28050_476"/>
</filter>
</defs>
</svg>
