<svg width="152" height="41" viewBox="0 0 152 41" fill="none" xmlns="http://www.w3.org/2000/svg">
<path d="M71.7407 27.0352C72.4468 26.6426 73.0528 26.2224 73.7207 25.9516C75.5665 25.2034 77.4216 25.9772 78.2029 27.808C79.353 30.5048 77.9009 34.1636 74.7794 35.004C73.6569 35.3062 72.543 35.1494 71.4473 34.8509C70.947 34.715 70.4735 34.503 70.119 35.1047C70.0743 35.1818 69.9037 35.1856 69.7398 35.2407C69.7398 35.0211 69.7398 34.8652 69.7398 34.7102C69.715 30.8147 69.6922 26.9193 69.6654 23.0238C69.6597 22.2272 69.4891 22.0314 68.7193 21.846C68.6126 21.8204 68.5249 21.7138 68.4286 21.6445C68.523 21.5864 68.6107 21.4981 68.7126 21.4762C69.6988 21.2604 70.6869 21.0561 71.7407 20.8336V27.0352ZM71.7446 30.2396H71.7503C71.7503 31.0144 71.736 31.79 71.755 32.5648C71.7684 33.0914 71.8608 33.5952 72.2982 33.9773C73.1709 34.7406 74.7098 34.579 75.5446 33.62C76.6441 32.3575 76.8938 29.847 76.08 28.3822C75.1358 26.6807 73.1119 26.8822 71.9047 27.521C71.8084 27.5723 71.7531 27.7785 71.7503 27.9145C71.736 28.6892 71.7436 29.4649 71.7436 30.2396H71.7446Z" fill="#14675E"/>
<path d="M46.5189 13.978C46.6694 14.1595 46.8028 14.2754 46.881 14.4209C47.2431 15.1016 47.5146 15.844 47.9576 16.4638C48.7304 17.5436 49.8481 17.98 51.1688 17.765C52.055 17.6216 52.6705 17.0835 52.9411 16.2318C53.2412 15.2879 53.226 14.3259 52.4074 13.6547C51.7691 13.131 51.0001 12.7603 50.2711 12.3553C49.6499 12.0103 48.9858 11.7412 48.3712 11.3857C47.1382 10.6709 46.4092 9.62332 46.536 8.15371C46.6685 6.61282 47.5136 5.53865 48.9343 4.94929C50.5466 4.27913 52.1369 4.59852 53.7062 5.14986C53.7901 5.17933 53.8939 5.2972 53.9006 5.38086C53.9787 6.26014 54.0397 7.14134 54.0007 8.10619C53.8777 7.99021 53.7376 7.88659 53.6357 7.75446C53.1831 7.16985 52.8114 6.5035 52.2817 6.00349C51.3231 5.09758 49.9234 5.05385 49.0706 5.78676C48.0587 6.65654 48.0206 8.18413 49.0477 9.03016C49.5165 9.41705 50.0844 9.68986 50.6237 9.98454C51.4422 10.4313 52.3122 10.7935 53.0945 11.2944C55.9797 13.1415 55.085 16.6301 52.7667 17.863C50.7571 18.9315 48.7266 18.6387 46.7266 17.7794C46.6351 17.7403 46.5284 17.5997 46.5274 17.5056C46.5141 16.3838 46.5189 15.2622 46.5189 13.9789V13.978Z" fill="#14675E"/>
<path d="M57.4176 25.7168C57.2852 25.5988 57.1146 25.5038 57.0278 25.3584C56.8506 25.0617 56.7268 24.7329 56.5658 24.4258C54.9631 21.3659 51.0239 21.9182 49.5252 24.1226C48.9105 25.0266 48.6276 26.0399 48.5237 27.1008C48.334 29.0286 48.6761 30.8423 49.7824 32.4802C51.4594 34.963 54.8925 35.0448 56.6648 32.6179C56.9517 32.2254 57.1413 31.7634 57.4042 31.3518C57.491 31.2159 57.6672 31.1379 57.8025 31.0333C57.8492 31.0656 57.8959 31.098 57.9426 31.1303C57.8035 32.0124 57.6701 32.8956 57.5177 33.7748C57.5024 33.8623 57.3833 33.9488 57.2928 34.0049C54.6258 35.6332 50.861 35.58 48.3789 33.6532C45.6108 31.5049 45.1639 27.1464 47.4365 24.3212C49.0992 22.2547 51.3318 21.4458 53.9225 21.6682C54.9669 21.7575 55.9912 22.0864 57.0193 22.326C57.1432 22.3545 57.3252 22.4942 57.3338 22.595C57.4242 23.5998 57.4834 24.6074 57.5519 25.614C57.5072 25.6492 57.4623 25.6834 57.4176 25.7187V25.7168Z" fill="#14675E"/>
<path d="M90.5995 8.8562V10.5568C91.1303 10.2089 91.6049 9.87809 92.0984 9.58055C92.9331 9.07579 93.8164 8.79251 94.814 9.01021C95.6515 9.19366 96.2233 9.6604 96.4358 10.4893C96.5673 11.0055 96.6731 11.5416 96.6854 12.072C96.7207 13.5597 96.6988 15.0492 96.7054 16.5379C96.7093 17.3935 96.8895 17.6159 97.6943 17.8659C97.8067 17.901 97.8895 18.0313 97.9857 18.1177C97.96 18.1539 97.9334 18.1891 97.9076 18.2252H93.278C93.4486 18.0408 93.5238 17.8849 93.6392 17.845C94.5587 17.5265 94.7264 17.3383 94.7188 16.3753C94.7064 14.8097 94.7054 13.2412 94.6206 11.6785C94.5634 10.6214 93.725 10.0159 92.6692 10.1699C92.3594 10.2146 92.0498 10.3097 91.7611 10.4323C90.9854 10.7602 90.4948 11.2127 90.5691 12.207C90.6758 13.6243 90.5938 15.056 90.6024 16.4809C90.6081 17.4106 90.752 17.5855 91.6258 17.8725C91.7306 17.9067 91.804 18.0389 91.9889 18.2204H87.4133C87.3847 18.1881 87.3571 18.1558 87.3284 18.1234C87.4304 18.0303 87.5171 17.8906 87.6362 17.8526C88.449 17.5921 88.6129 17.3897 88.6157 16.5189C88.6214 14.7774 88.6224 13.035 88.6186 11.2935C88.6167 10.4884 88.4871 10.3277 87.7181 10.0682C87.6153 10.034 87.5324 9.93893 87.4409 9.87143C87.5133 9.80679 87.5762 9.70603 87.66 9.68226C88.6157 9.4066 89.5743 9.14328 90.6014 8.85716L90.5995 8.8562Z" fill="#14675E"/>
<path d="M82.7072 12.8325C82.6195 12.1482 82.5909 11.4494 82.4279 10.784C82.224 9.9513 81.6685 9.63286 80.7405 9.67658C80.0078 9.71081 79.6428 10.054 79.4465 10.8867C79.3884 11.1319 79.3464 11.3848 79.2559 11.6177C79.0844 12.0597 78.5375 12.2736 78.1087 12.0911C77.7533 11.9408 77.6428 11.612 77.861 11.1186C78.4308 9.82963 79.5208 9.19749 80.8415 8.95509C81.3589 8.86003 81.9258 8.88284 82.446 8.9798C83.8401 9.23932 84.5938 10.1956 84.6014 11.632C84.6099 13.152 84.5995 14.6729 84.6042 16.1928C84.6042 16.3962 84.6148 16.6073 84.6681 16.8022C84.8368 17.422 85.2589 17.6187 85.8725 17.4144C86.0031 17.3706 86.165 17.4201 86.3127 17.4267C86.326 17.5103 86.3403 17.595 86.3537 17.6786C85.7362 17.9381 85.1388 18.2727 84.4966 18.4381C83.4552 18.7071 82.8262 18.2091 82.7034 17.1406C82.6986 17.0987 82.6738 17.0598 82.6318 16.9504C82.4832 17.0883 82.366 17.2034 82.2421 17.3107C81.4046 18.0389 80.4746 18.5399 79.3188 18.4552C78.4508 18.3916 77.7961 18.0028 77.5237 17.1463C77.2426 16.2613 77.4331 15.4171 78.1773 14.8849C78.9519 14.3297 79.8324 13.9077 80.7014 13.5037C81.2979 13.2261 81.9554 13.0787 82.7072 12.8325ZM82.6347 13.419C81.7391 13.8411 80.932 14.1862 80.1631 14.6035C79.8905 14.7518 79.6552 15.0445 79.5027 15.325C79.012 16.23 79.6304 17.2129 80.6614 17.2062C81.3779 17.2024 81.9554 16.8402 82.5185 16.4562C82.5814 16.4134 82.628 16.2993 82.629 16.2176C82.6366 15.3373 82.6338 14.458 82.6338 13.419H82.6347Z" fill="#14675E"/>
<path d="M64.5886 29.4468C64.5124 28.8451 64.4877 28.1141 64.3142 27.4192C64.1237 26.6577 63.5596 26.3584 62.7048 26.4002C61.9883 26.4344 61.5977 26.7785 61.4042 27.5532C61.347 27.7833 61.3184 28.021 61.247 28.2463C61.1079 28.6835 60.7667 28.8727 60.3341 28.8575C59.954 28.8442 59.6662 28.6464 59.7605 28.2253C59.8378 27.8812 59.9568 27.5152 60.1617 27.2357C61.1126 25.9392 62.9383 25.3175 64.4877 25.7177C65.8074 26.0589 66.4667 26.9297 66.482 28.4069C66.4962 29.8166 66.481 31.2254 66.481 32.635C66.481 32.8566 66.4791 33.08 66.5029 33.2996C66.5858 34.0553 67.0422 34.3395 67.7588 34.1161C67.8826 34.0781 68.038 34.1408 68.18 34.233C67.4758 34.792 66.7592 35.2501 65.8521 35.2017C65.0822 35.1607 64.6697 34.7434 64.6001 33.983C64.5934 33.9089 64.5801 33.8348 64.5601 33.6893C64.2418 33.9478 63.9769 34.1835 63.6921 34.3908C62.9536 34.9279 62.1427 35.2425 61.2089 35.1655C60.4619 35.1047 59.8463 34.812 59.5271 34.1113C59.206 33.406 59.2213 32.6646 59.6967 32.0409C59.995 31.6502 60.3971 31.2767 60.8344 31.0656C62.0112 30.4991 63.2318 30.0238 64.5877 29.4468H64.5886ZM64.5267 30.155C63.6539 30.5581 62.8821 30.9031 62.1226 31.2738C61.9445 31.3604 61.793 31.5191 61.6567 31.6692C61.228 32.1389 61.1345 32.7824 61.4033 33.2901C61.652 33.7615 62.2065 34.0743 62.8144 33.9136C63.3652 33.7682 63.875 33.4583 64.3904 33.1968C64.4696 33.1569 64.521 32.9877 64.522 32.8785C64.5324 32.0286 64.5277 31.1778 64.5277 30.155H64.5267Z" fill="#14675E"/>
<path d="M96.5482 33.9535C96.5311 34.1437 96.5673 34.3357 96.5025 34.3794C95.845 34.8272 95.1628 35.2492 94.3224 35.1998C93.543 35.1532 93.1513 34.7435 93.0894 33.9706C93.0837 33.8984 93.0751 33.8253 93.0589 33.677C92.7444 33.9355 92.4891 34.1589 92.2185 34.3651C91.4762 34.9307 90.653 35.2473 89.6992 35.1674C88.9341 35.1028 88.3023 34.8091 87.9907 34.0809C87.662 33.3129 87.7143 32.522 88.2927 31.9051C88.7054 31.4649 89.2256 31.078 89.7706 30.8214C90.7968 30.3376 91.8755 29.9659 93.0722 29.4915C93.0018 28.8983 92.9837 28.1692 92.8141 27.4772C92.6111 26.6492 92.0775 26.3584 91.1551 26.403C90.43 26.4382 90.0479 26.7956 89.8621 27.6169C89.8201 27.8013 89.7925 27.9895 89.7478 28.173C89.6553 28.5514 89.4057 28.7662 89.0274 28.8394C88.4814 28.9449 88.1346 28.6455 88.2394 28.1065C88.2946 27.8214 88.4185 27.5276 88.5853 27.2881C89.5086 25.9582 91.4515 25.288 93.0246 25.731C94.3196 26.0951 94.9541 26.9705 94.9703 28.4677C94.9846 29.8138 94.9694 31.1598 94.9675 32.5058C94.9675 32.7121 94.9646 32.9174 94.9751 33.1228C95.0237 34.1285 95.4868 34.4175 96.5482 33.9535ZM93.0141 30.2244C92.4272 30.4554 91.8983 30.618 91.4134 30.866C90.956 31.0999 90.4758 31.3575 90.1289 31.7216C89.3857 32.5001 89.7011 33.676 90.6825 33.8956C91.5677 34.0933 92.2652 33.619 92.9464 33.1494C92.9875 33.1209 93.0113 33.0401 93.0113 32.9839C93.0151 32.0914 93.0141 31.1988 93.0141 30.2244Z" fill="#14675E"/>
<path d="M107.961 17.6862C107.4 17.9323 106.859 18.2527 106.274 18.4096C105.088 18.727 104.46 18.2546 104.316 16.9808C104.09 17.1681 103.893 17.3382 103.689 17.4989C102.869 18.1462 101.969 18.5645 100.887 18.4419C100.14 18.3573 99.5514 18.0274 99.2619 17.3097C98.9619 16.5664 99.0257 15.8269 99.5562 15.2156C99.8714 14.8524 100.264 14.5017 100.694 14.304C101.739 13.8249 102.822 13.4247 103.901 13.0255C104.197 12.9161 104.361 12.8087 104.309 12.4712C104.218 11.8648 104.211 11.2384 104.05 10.6528C103.855 9.937 103.279 9.63471 102.455 9.67369C101.755 9.70696 101.348 10.0435 101.147 10.765C101.083 10.9921 101.086 11.2526 100.973 11.4494C100.832 11.6946 100.64 11.9903 100.401 12.0787C100.162 12.1671 99.7771 12.1072 99.5752 11.955C99.4381 11.8515 99.4181 11.4446 99.4981 11.2289C99.9228 10.0834 100.875 9.49022 101.952 9.08432C102.68 8.81055 103.444 8.80675 104.2 8.99972C105.508 9.33432 106.212 10.2013 106.232 11.5615C106.254 13.034 106.236 14.5065 106.244 15.9789C106.246 16.2461 106.269 16.5179 106.322 16.7793C106.449 17.4067 106.873 17.6206 107.491 17.4181C107.626 17.3743 107.79 17.4238 107.942 17.4295C107.948 17.515 107.953 17.5997 107.96 17.6852L107.961 17.6862ZM104.304 13.4798C103.49 13.8306 102.764 14.1006 102.083 14.457C101.748 14.6329 101.444 14.9323 101.222 15.2441C100.931 15.652 100.916 16.1348 101.171 16.5911C101.421 17.036 101.822 17.2147 102.321 17.21C103.022 17.2043 103.594 16.8696 104.144 16.4865C104.229 16.4267 104.296 16.2793 104.298 16.1709C104.31 15.3192 104.305 14.4674 104.305 13.4788L104.304 13.4798Z" fill="#14675E"/>
<path d="M67.0214 17.9143C67.0138 18.0161 67.0061 18.1206 66.9976 18.2271H62.3639C62.3362 18.1929 62.3085 18.1596 62.2819 18.1253C62.3858 18.0284 62.4724 17.882 62.5954 17.8411C63.4234 17.5665 63.6197 17.3592 63.6197 16.478C63.6168 13.1081 63.5987 9.73739 63.5701 6.36757C63.5635 5.52916 63.3843 5.34854 62.5716 5.10994C62.4648 5.07857 62.3829 4.9645 62.2085 4.82287C63.4281 4.5586 64.5068 4.32476 65.6207 4.08331C65.6207 4.48921 65.6207 4.86279 65.6207 5.23733C65.6207 8.81438 65.6207 12.3905 65.6217 15.9675C65.6217 16.0626 65.6236 16.1576 65.6264 16.2527C65.6541 17.5293 65.7683 17.6672 67.0233 17.9162L67.0214 17.9143Z" fill="#14675E"/>
<path d="M102.165 34.887H97.6495C97.6171 34.8557 97.5847 34.8253 97.5524 34.7939C97.6476 34.695 97.7267 34.5419 97.8419 34.5068C98.6314 34.2692 98.8524 34.0638 98.8752 33.2483C98.9152 31.8242 98.9143 30.3984 98.9038 28.9735C98.8905 27.0104 98.8571 25.0475 98.8238 23.0855C98.8105 22.3165 98.6057 22.0712 97.8876 21.8621C97.7752 21.8289 97.6809 21.7319 97.5781 21.6644C97.6857 21.6007 97.7867 21.5066 97.9028 21.479C98.7038 21.2889 99.5057 21.1083 100.31 20.9343C100.477 20.8982 100.652 20.9001 100.85 20.8821C100.858 21.0417 100.87 21.1644 100.87 21.288C100.859 24.8982 100.846 28.5086 100.838 32.1199C100.838 32.4992 100.872 32.8785 100.89 33.2578C100.93 34.1056 101.125 34.3243 101.951 34.5106C102.073 34.5381 102.172 34.6703 102.281 34.7539C102.242 34.7987 102.204 34.8433 102.165 34.888V34.887Z" fill="#14675E"/>
<path d="M77.2816 9.13379C77.1292 9.32106 77.0625 9.4855 76.9481 9.53018C76.2439 9.8087 75.8409 10.3553 75.5637 11.0178C74.5765 13.3782 73.5932 15.7404 72.6146 18.1044C72.5088 18.3602 72.4336 18.5674 72.0696 18.5636C71.717 18.5598 71.6637 18.346 71.5645 18.113C70.6221 15.9048 69.6788 13.6966 68.727 11.4912C68.565 11.1148 68.4087 10.7184 68.16 10.4019C67.9075 10.0796 67.5387 9.84958 67.231 9.56725C67.1195 9.46554 67.0395 9.32961 66.8794 9.12714H71.5007C71.6178 9.42277 71.4731 9.46079 71.2262 9.50356C70.4154 9.6433 70.2181 9.93418 70.5278 10.6842C71.2444 12.4181 72.0114 14.131 72.7565 15.8507C72.8052 15.8402 72.8528 15.8412 72.8585 15.8259C73.4664 14.2498 74.0724 12.6737 74.6765 11.0958C74.7098 11.0074 74.7328 10.9152 74.7576 10.823C74.9681 10.0444 74.7995 9.74787 74.04 9.50736C73.9104 9.46649 73.8085 9.34102 73.6932 9.25451L73.7676 9.13284H77.2816V9.13379Z" fill="#14675E"/>
<path d="M85.0483 34.6561C84.9406 34.7368 84.8349 34.888 84.7262 34.889C83.1864 34.908 81.6476 34.9127 80.1078 34.9004C79.9954 34.9004 79.8848 34.7463 79.6971 34.6076C80.9301 34.2644 81.0654 34.1104 81.0777 32.9906C81.0958 31.3281 81.0958 29.6655 81.092 28.0029C81.0901 27.1569 81.0273 27.0913 80.2117 26.7804C80.1087 26.7415 80.022 26.6588 79.8029 26.5134C80.9787 26.1797 82.0154 25.886 83.0788 25.5837V27.9829C83.1998 27.8509 83.2684 27.7852 83.3256 27.7111C83.6791 27.2463 83.9754 26.7196 84.3994 26.3318C84.73 26.0285 85.1989 25.8213 85.641 25.7044C86.2318 25.5485 86.6538 25.8441 86.8187 26.385C86.9349 26.7662 86.9607 27.155 86.67 27.4583C86.3679 27.7738 85.9716 27.7937 85.5657 27.6607C85.5209 27.6455 85.4723 27.6417 85.4276 27.6275C84.125 27.211 83.0998 27.9478 83.0836 29.3309C83.0693 30.5496 83.0769 31.7691 83.0797 32.9887C83.0817 34.0848 83.4075 34.4251 84.509 34.4973C84.651 34.5068 84.7929 34.5106 84.9349 34.5163C84.9739 34.5629 85.0121 34.6086 85.0512 34.6551L85.0483 34.6561Z" fill="#14675E"/>
<path d="M56.5067 9.72409C57.5415 9.44462 58.5772 9.1642 59.6501 8.87427C59.6501 9.7298 59.6501 10.5511 59.6501 11.3724C59.6511 13.0511 59.6492 14.7308 59.6568 16.4096C59.6616 17.3849 59.8226 17.5722 60.7563 17.8345C60.8888 17.8716 60.9917 18.0161 61.1079 18.1101C61.0784 18.1549 61.0489 18.1986 61.0203 18.2432C60.9107 18.2432 60.8021 18.2432 60.6925 18.2432C59.2814 18.2432 57.8693 18.2432 56.458 18.2432C56.4276 18.2071 56.398 18.171 56.3676 18.1348C56.4618 18.0332 56.5419 17.8659 56.6543 17.8393C57.4128 17.6634 57.7216 17.1823 57.7206 16.4315C57.7168 14.689 57.7444 12.9466 57.732 11.2051C57.7263 10.5121 57.5291 10.3106 56.8582 10.0806C56.7192 10.033 56.5943 9.94273 56.4628 9.87144C56.478 9.82201 56.4924 9.77258 56.5076 9.72219L56.5067 9.72409Z" fill="#14675E"/>
<path d="M59.7443 6.03388C59.7386 6.72875 59.2499 7.20975 58.5733 7.18789C57.913 7.16603 57.3832 6.62799 57.4013 5.99776C57.4203 5.33806 57.9387 4.84565 58.6095 4.84945C59.2984 4.85325 59.751 5.3257 59.7443 6.03388Z" fill="#14675E"/>
<path d="M25.8113 8.84251C26.1415 8.27643 26.4516 7.74483 26.7769 7.18544C25.7166 6.52932 24.5912 6.10499 23.417 5.81956C20.4906 5.10979 17.6331 5.19696 14.9336 6.68736C13.0704 7.71609 11.7823 9.20746 11.41 11.3626C10.9392 14.0915 12.1775 16.6107 14.6101 17.9526C16.1738 18.8156 17.8916 19.2265 19.5968 19.6795C20.9471 20.0378 22.3126 20.3529 23.64 20.783C25.3099 21.3242 26.4602 22.4017 26.62 24.2533C26.7903 26.2178 26.286 27.9228 24.5673 29.1009C23.5673 29.7867 22.4409 30.1622 21.283 30.4707C19.3537 30.985 18.3365 32.2829 18.3117 34.28C18.2954 35.6181 18.3088 36.9562 18.3088 38.4217C17.1878 38.4217 15.6044 37.8949 15.6044 37.8949C8.15161 35.7101 3.54003 30.7675 2.14192 23.169C1.01079 17.0206 2.70557 11.489 7.1114 6.94981C9.8952 4.08107 13.3364 2.40676 17.2983 1.85408C26.2103 0.608887 34.6603 5.80806 37.3752 14.2697C40.6863 24.5895 34.7273 35.2302 24.4802 37.8987C23.1041 38.257 21.7537 38.4246 20.2476 38.4246C20.2476 38.3167 20.2457 38.2109 20.2476 38.1066C20.2696 36.7838 20.2485 35.4581 20.3365 34.1402C20.4065 33.0999 21.0686 32.506 22.061 32.2187C22.9137 31.9716 23.7816 31.7311 24.5788 31.3528C28.287 29.5971 29.3138 26.1028 28.3827 22.7341C27.9128 21.0339 26.6745 19.9219 25.1003 19.2849C23.7835 18.7524 22.3768 18.4439 21.0112 18.0292C19.4313 17.5493 17.8264 17.1365 16.2848 16.5531C14.857 16.013 13.7786 15.0254 13.4522 13.4363C13.0924 11.6854 13.6503 10.2218 14.9642 9.05228C16.2283 7.92681 17.7614 7.43831 19.4227 7.32624C21.6782 7.17394 23.7788 7.71609 25.8103 8.84251H25.8113ZM24.9367 13.3415C24.9434 12.1509 23.9854 11.151 22.8227 11.1356C21.6524 11.1193 20.6409 12.1021 20.6275 13.2667C20.6141 14.4277 21.6055 15.4354 22.7759 15.4517C23.9137 15.467 24.93 14.4747 24.9357 13.3415H24.9367Z" fill="#14675E"/>
</svg>
