<svg width="95" height="24" viewBox="0 0 95 24" fill="none" xmlns="http://www.w3.org/2000/svg">
<g clip-path="url(#clip0_28033_337)">
<path fill-rule="evenodd" clip-rule="evenodd" d="M21.0835 3.63818C11.9421 5.52506 4.35502 5.6012 0.418274 3.39191C5.59677 4.58162 11.4288 4.80767 19.3522 1.96307C25.9958 -0.32117 31.6176 -1.04451 35.5793 2.16413C37.7467 3.92609 40.6817 5.82606 44.2762 6.8266C47.2303 7.65107 50.5574 7.77718 54.8435 7.51901C48.4162 11.0929 42.9323 8.77773 38.6664 5.4739C35.8835 3.32767 30.2297 1.74892 21.0823 3.63699L21.0835 3.63818Z" fill="#FAF8F2"/>
<path fill-rule="evenodd" clip-rule="evenodd" d="M76.5794 1.22188C68.1997 -0.199819 62.1336 3.0469 53.7468 7.92946C57.005 8.17454 61.9874 6.77188 67.9906 4.39365C72.1935 2.97789 75.4197 2.29143 81.607 3.15397C87.7931 4.02246 93.8854 4.2485 95.0012 2.8268C92.6175 4.26159 84.9603 2.64478 76.5806 1.22188H76.5794Z" fill="#FAF8F2"/>
<path fill-rule="evenodd" clip-rule="evenodd" d="M10.0849 14.3098L7.96142 14.2468C7.44809 13.1082 6.69948 12.3527 5.47675 12.3397C3.46738 12.3206 2.14246 13.5793 2.96712 14.8309C3.53749 15.6994 4.67229 15.7874 6.18733 16.1455C7.63227 16.4858 9.45865 17.083 10.0219 18.4238C10.5863 19.7575 10.3582 22.401 8.24067 23.3694C4.95034 24.8732 0.482439 23.7026 0 19.6576H2.35159C3.57551 23.3694 9.86979 21.0352 7.16291 19.1353C5.96513 18.2918 3.79653 18.2668 2.09136 17.3233C0.760494 16.5869 -0.450355 15.1902 0.348164 13.0452C0.912593 11.5164 2.69381 10.2886 5.5017 10.3267C7.70119 10.3517 9.95772 11.9946 10.0849 14.3098ZM20.2208 13.5865V19.9288C20.2208 22.1 18.4337 23.8739 16.2461 23.8739H15.3335C13.153 23.8739 11.3658 22.1 11.3658 19.9288V13.5865H14.0216V19.9419C14.0216 20.9044 14.8201 21.6979 15.7898 21.6979C16.7665 21.6979 17.5579 20.9056 17.5579 19.9419V14.9023C17.5579 14.217 17.9001 13.5877 18.6868 13.5877H20.2208V13.5865ZM24.1766 10.774V23.7168H21.5208V12.0827C21.5208 11.3974 21.863 10.774 22.6497 10.774H24.1778H24.1766ZM37.6968 23.7168H34.9007L33.943 21.0555H28.7705L27.7818 23.7168H25.107L29.405 11.7745C29.6201 11.1833 30.0894 10.6919 30.5909 10.6919H32.7714L37.6968 23.7168ZM33.1576 18.8593L31.4013 13.9707L29.588 18.8593H33.1564H33.1576ZM74.8291 13.5234V23.6859H72.1733V14.8392C72.1733 14.154 72.5155 13.5246 73.3021 13.5246H74.8303L74.8291 13.5234ZM53.6766 23.6978V17.3555C53.6766 15.1914 51.8895 13.4163 49.7019 13.4163H48.7893C47.8006 13.4163 46.894 13.7816 46.1965 14.3788C45.4989 13.7816 44.5864 13.4163 43.5977 13.4163H42.6851C40.5046 13.4163 38.7175 15.1902 38.7175 17.3555V23.6978H41.3733V17.3483C41.3733 16.3799 42.1718 15.5923 43.1414 15.5923C44.2572 15.5923 44.8216 16.3406 44.8216 17.3543V23.6966H47.4774L47.5404 16.882C47.7495 16.1396 48.434 15.5923 49.2456 15.5923C50.2223 15.5923 51.0137 16.3787 51.0137 17.3483V22.3879C51.0137 23.0732 51.3559 23.6966 52.1426 23.6966H53.6766V23.6978ZM59.4516 15.2533C60.7445 15.2533 61.7973 16.3169 61.8092 17.6315H57.0929C57.106 16.3169 58.1576 15.2533 59.4505 15.2533H59.4516ZM64.2119 19.2673L57.062 19.2423C56.961 21.7848 60.1492 22.7341 61.7272 20.7402L63.9837 20.7652C62.4556 25.4217 54.8815 24.5722 54.8815 19.3994V17.7695C54.8815 12.3837 64.3711 11.0238 64.2119 19.2673ZM60.085 10.7098L58.684 12.7049H60.1361L62.1455 10.7098H60.085ZM69.7516 13.7423H70.2019C70.398 13.7423 70.5953 13.7554 70.7854 13.7804V16.1336C70.7414 16.1277 70.6903 16.1277 70.6392 16.1277H70.0938C68.864 16.1277 67.8504 17.1282 67.8504 18.3548V23.5776C67.8504 23.6407 67.8563 23.6966 67.8563 23.7537H65.3906V18.0657C65.3906 15.6875 67.356 13.7435 69.7516 13.7435V13.7423ZM74.8291 10.7217V12.6407H72.1733V12.0363C72.1733 11.351 72.5155 10.7217 73.3021 10.7217H74.8303H74.8291ZM80.7621 13.4342H80.9962C82.9236 13.4342 84.7167 14.5097 85.1991 16.2348H82.8666C82.3782 15.7375 81.6937 15.4234 80.9463 15.4234H80.8132C77.2508 15.4234 77.2947 21.8668 80.8132 21.8668H80.9463C81.8589 21.8668 82.6705 21.4076 83.1517 20.7033H85.4903C84.8629 22.5723 83.0816 23.925 80.9962 23.925H80.7621C78.1503 23.925 76.0138 21.805 76.0138 19.2126V18.149C76.0138 15.5566 78.1503 13.4366 80.7621 13.4366V13.4342ZM91.3865 13.3842C88.9077 13.0761 87.0766 14.2836 86.3981 16.2847H89.0289C89.3902 15.3603 90.7852 15.1331 91.6788 15.4924C92.4714 15.8065 92.6104 16.6119 91.977 17.1282C91.3175 17.6696 88.7247 17.3864 87.445 18.3739C85.4225 19.9467 85.8729 22.9233 88.5928 23.7228C89.9118 24.1071 91.6229 24.0309 92.6936 23.2636L93.0988 23.7989H94.918V16.512C94.918 14.6869 93.8593 13.6935 91.3877 13.3842H91.3865ZM89.8964 19.3554C91.8867 19.0151 91.8428 18.8831 92.4761 18.5559V19.9526C92.4761 21.6265 91.2593 22.1548 89.9974 22.0477C88.7295 21.9347 87.906 19.6885 89.8964 19.3542V19.3554Z" fill="#FAF8F2"/>
</g>
<defs>
<clipPath id="clip0_28033_337">
<rect width="95" height="24" fill="white"/>
</clipPath>
</defs>
</svg>
