<svg width="136" height="24" viewBox="0 0 136 24" fill="none" xmlns="http://www.w3.org/2000/svg">
<path fill-rule="evenodd" clip-rule="evenodd" d="M120.612 3.01855H126.613L135.663 15.0186H129.638L134.151 21.0062H126.613L122.125 15.0186H125.1L120.612 9.03093H125.1L120.612 3.01855Z" fill="#FAF8F2"/>
<path fill-rule="evenodd" clip-rule="evenodd" d="M120.612 3.01855H114.587L105.561 15.0186H111.561L107.073 21.0062H114.587L119.099 15.0186H116.074L120.612 9.03093H116.099L120.612 3.01855Z" fill="#FAF8F2"/>
<path fill-rule="evenodd" clip-rule="evenodd" d="M6.72227 4.23093H0.300003V14.4247C0.300003 19.3485 3.96987 21.2784 8.63159 21.2784C13.6901 21.2784 17.0624 19.4722 17.0624 14.0536V4.23093H10.7641V14.1773C10.7641 15.8103 10.3921 16.9485 8.73078 16.9485C7.1686 16.9485 6.72227 15.7608 6.72227 14.1773V4.23093Z" fill="#FAF8F2"/>
<path fill-rule="evenodd" clip-rule="evenodd" d="M24.6996 21.0062V13.7814C24.6996 13.0887 24.6996 12.1237 25.7907 12.1237C26.8569 12.1237 26.8569 13.0887 26.8569 13.7814V21.0062H32.9072V12.3216C32.9072 9.87216 31.717 8.21443 28.4935 8.21443C26.7825 8.21443 25.146 8.90721 24.4021 10.6639H24.3525V8.4866H18.6245V21.0062H24.6996Z" fill="#FAF8F2"/>
<path fill-rule="evenodd" clip-rule="evenodd" d="M35.0149 21.0062H41.0653V8.4866H35.0149V21.0062ZM41.0653 3.01855H35.0149V7.17526H41.0653V3.01855Z" fill="#FAF8F2"/>
<path fill-rule="evenodd" clip-rule="evenodd" d="M49.0993 21.0062V13.7814C49.0993 13.0887 49.0993 12.1237 50.2151 12.1237C51.2318 12.1237 51.2318 13.0887 51.2318 13.7814V21.0062H57.3317V13.7814C57.3317 13.0887 57.3317 12.1237 58.3483 12.1237C59.4394 12.1237 59.4394 13.0887 59.4394 13.7814V21.0062H65.4897V13.5093C65.4897 11.0598 65.4897 8.21443 61.0759 8.21443C59.5634 8.21443 57.4805 8.90722 57.0589 10.367H57.0093C56.5134 8.85773 54.7529 8.21443 53.0915 8.21443C51.1574 8.21443 49.5208 8.90721 48.8017 10.6639H48.7521V8.4866H43.0242V21.0062H49.0993Z" fill="#FAF8F2"/>
<path fill-rule="evenodd" clip-rule="evenodd" d="M72.6559 13.534C72.5815 12.5443 72.8542 11.0845 74.2924 11.0845C75.6314 11.0845 75.805 12.5938 75.805 13.534H72.6559ZM81.037 16.1814V15.4392C81.037 11.2082 79.3261 8.18969 74.4412 8.18969C69.3827 8.18969 66.6799 10.3175 66.6799 14.499C66.6799 18.8289 69.3827 21.2783 74.4412 21.2783C76.5737 21.2783 78.483 21.0309 80.0948 20.5361V17.3196C79.1525 17.8144 77.6399 18.0866 76.0034 18.0866C74.218 18.0866 72.7798 17.7155 72.6559 16.1567H81.037V16.1814Z" fill="#FAF8F2"/>
<path fill-rule="evenodd" clip-rule="evenodd" d="M97.5266 21.0062V3.01855H91.4763V10.1196H91.4267C90.4845 8.75876 89.2694 8.18969 87.6329 8.18969C83.8638 8.18969 82.3264 11.1588 82.3264 14.5485C82.3264 18.1361 83.7894 21.2783 87.856 21.2783C89.8149 21.2783 91.0548 20.5856 91.8483 18.7051H91.8978V20.9814H97.5266V21.0062ZM91.6499 14.6722C91.6499 15.8598 91.4515 17.2454 90.1869 17.2454C88.8479 17.2454 88.6247 15.8598 88.6247 14.5485C88.6247 13.2371 88.8231 11.9258 90.0877 11.9258C91.4267 11.9505 91.6499 13.2619 91.6499 14.6722Z" fill="#FAF8F2"/>
<path fill-rule="evenodd" clip-rule="evenodd" d="M102.56 24V0H101.544V24H102.56Z" fill="#FAF8F2"/>
</svg>
