<svg width="1280" height="414" viewBox="0 0 1280 414" fill="none" xmlns="http://www.w3.org/2000/svg">
<g clip-path="url(#clip0_28069_1748)">
<rect width="1280" height="414" fill="#F3EFE1"/>
<mask id="mask0_28069_1748" style="mask-type:luminance" maskUnits="userSpaceOnUse" x="-43" y="-11" width="1323" height="425">
<path d="M1280 -11H-43V414H1280V-11Z" fill="white"/>
</mask>
<g mask="url(#mask0_28069_1748)">
<path d="M1117.18 440.09L1025.77 424.538L1064.32 210.205L1155.6 226.526L1117.18 440.09Z" fill="#C7603D"/>
<g style="mix-blend-mode:multiply" opacity="0.39">
<path d="M1068.81 294.936C1083.06 327.462 1093.96 342.359 1133.28 351.385L1136.36 334.18C1112.35 324.436 1089.68 310.205 1068.81 294.949V294.936Z" fill="#A74425"/>
</g>
<path d="M1263.37 232.82C1257.6 218.064 1248.81 202.91 1244.92 188.205C1240.95 100.461 1175.67 63.9867 1140.73 60.2559C1063.86 52.0508 1004.41 100.551 1003.8 183.769C1003.18 266.987 1065.35 334.897 1142.65 335.474C1236.01 336.166 1244.37 328.282 1246.72 242.525C1249.28 242.397 1253.31 242.32 1257.17 242.217C1261.94 242.089 1265.13 237.256 1263.38 232.82H1263.37Z" fill="#C7603D"/>
<path d="M1043.85 482.448C1037.14 468.884 1042.79 452.282 1051.68 440.025C1060.55 427.782 1072.47 417.859 1080.44 405C1088.41 392.141 1091.55 374.307 1082.1 362.5C1074.9 353.5 1062.31 350.295 1054.86 341.513C1044.46 329.269 1047.36 310.692 1053.18 295.73C1059 280.756 1067.29 265.782 1065.94 249.782C1064.99 238.679 1057.97 231.807 1054.23 222.077C1050.1 211.346 1072.46 205.448 1075.72 209.218C1073.73 190.231 1082.55 167.884 1098.13 156.859C1121.37 140.423 1149.18 132.807 1173.22 118.141C1192.95 106.102 1212.12 85.2562 1193.79 63.0382C1181.9 48.6151 1149.67 44.6664 1132.5 44.7946C1099.76 45.051 1072.79 59.7433 1045.44 77.5126C1034.19 84.8203 1024.82 93.5895 1010.24 91.1536C988.167 87.4613 970.513 71.4613 953.603 56.7946C936.692 42.128 917.308 27.4228 894.923 27.269C880.667 27.1664 867.128 33.0767 854.192 39.0767C841.256 45.0767 828 51.3844 813.769 52.1792C799.538 52.9741 783.872 46.8203 777.936 33.8587C774.744 26.8844 774.462 18.3844 769.321 12.6921C764.321 7.1536 756.218 5.93565 748.795 5.16642C709.321 1.05104 669.538 -0.0643452 629.91 1.87155L-52.5 12.6921V482.448H1043.85Z" fill="#9B4322"/>
<path d="M1079.18 247.597C1090.65 223.133 1080.11 194.002 1055.65 182.532C1031.18 171.062 1002.05 181.596 990.584 206.06C979.114 230.524 989.647 259.654 1014.11 271.124C1038.58 282.594 1067.71 272.061 1079.18 247.597Z" fill="#C7603D"/>
<path d="M1016.13 181.564C1022 179.128 1028.45 177.808 1035.21 177.859" stroke="#131426" stroke-miterlimit="10" stroke-linecap="round"/>
<path d="M1040.29 275.41C1038.38 275.628 1036.44 275.718 1034.47 275.705C1028.95 275.666 1023.64 274.705 1018.69 272.987" stroke="#131426" stroke-miterlimit="10" stroke-linecap="round"/>
<path d="M1021.65 220.577C1034.04 220.718 1046.21 227.013 1053.49 237.025C1040.9 232.32 1025.53 237 1016.94 247.333" stroke="#131426" stroke-linecap="round" stroke-linejoin="round"/>
<path d="M1223.92 195.974C1220.28 202.961 1213.58 208.256 1205.24 209.82C1196.95 211.384 1188.82 208.91 1182.9 203.782" stroke="#131426" stroke-miterlimit="10" stroke-linecap="round"/>
<path d="M1192.92 253.808C1194.65 257.949 1198.46 261.141 1202.83 262.128C1207.2 263.115 1212.03 261.859 1215.36 258.872" stroke="#131426" stroke-miterlimit="10" stroke-linecap="round"/>
<path d="M1168.94 147.679C1160.4 151.218 1146.46 159.077 1146.86 168.256C1146.99 171.192 1149.71 173.782 1153.15 173.231C1156.36 172.718 1158.64 170.526 1161.22 168.82C1171.28 162.192 1182.88 162.692 1193.78 159.333C1197.63 158.154 1200.82 155.744 1199.96 152.154C1197.19 140.538 1179.46 143.32 1168.95 147.679H1168.94Z" fill="#9B4322"/>
<path d="M1178.31 116.974C1170.72 127.487 1159.79 134.987 1149.83 143.282C1139.87 151.576 1130.32 161.512 1127.23 174.102C1122.81 192.179 1132.69 210.923 1130.97 229.461C1129.32 247.333 1117.32 262.218 1107.22 277.051C1097.13 291.884 1088.22 310.077 1093.62 327.179C1082.68 314.577 1087.01 294.846 1095.21 280.32C1103.4 265.782 1115.01 252.474 1117.76 236.012C1121.04 216.333 1110.85 196.205 1114.35 176.564C1117.79 157.218 1133.51 142.82 1147.74 129.256C1161.97 115.692 1176.49 99.2816 1176.28 79.6278C1176.26 77.3073 1183.28 81.2175 1183.9 81.8073C1186.21 84.0252 1186.35 90.2688 1186.42 93.1278C1186.65 101.602 1183.22 110.192 1178.31 116.974Z" fill="#9B4322"/>
<path d="M990.731 358.333C990.731 358.333 990.359 371.102 981.5 371.102C981.5 371.102 990.731 373.359 990.731 383.91C990.731 383.91 991.744 372.743 1000.73 371.102C1000.73 371.102 991.013 370.525 990.731 358.333Z" fill="white"/>
<path d="M669.577 350.103C669.577 350.103 669.205 362.872 660.346 362.872C660.346 362.872 669.577 365.128 669.577 375.679C669.577 375.679 670.59 364.513 679.577 362.872C679.577 362.872 669.859 362.295 669.577 350.103Z" fill="white"/>
<path d="M373.949 59.333C373.949 59.333 373.577 72.1022 364.718 72.1022C364.718 72.1022 373.949 74.3586 373.949 84.9099C373.949 84.9099 374.962 73.7433 383.949 72.1022C383.949 72.1022 374.231 71.5253 373.949 59.333Z" fill="white"/>
<path d="M709.962 48.0254C709.962 48.0254 709.59 60.7946 700.731 60.7946C700.731 60.7946 709.962 63.051 709.962 73.6023C709.962 73.6023 710.975 62.4356 719.962 60.7946C719.962 60.7946 710.244 60.2177 709.962 48.0254Z" fill="white"/>
<path d="M932.885 86.7949C932.885 86.7949 932.513 99.5642 923.654 99.5642C923.654 99.5642 932.885 101.821 932.885 112.372C932.885 112.372 933.897 101.205 942.885 99.5642C942.885 99.5642 933.167 98.9872 932.885 86.7949Z" fill="white"/>
<path d="M1149.03 64.3716C1149.03 64.3716 1148.65 77.1408 1139.79 77.1408C1139.79 77.1408 1149.03 79.3972 1149.03 89.9485C1149.03 89.9485 1150.04 78.7818 1159.03 77.1408C1159.03 77.1408 1149.31 76.5639 1149.03 64.3716Z" fill="white"/>
<path d="M1043.73 117.231C1043.73 119.949 1041.53 122.154 1038.81 122.154C1036.09 122.154 1033.88 119.949 1033.88 117.231C1033.88 114.513 1036.09 112.308 1038.81 112.308C1041.53 112.308 1043.73 114.513 1043.73 117.231Z" fill="#1FAD9A"/>
<path d="M356.179 356.641C358.898 356.641 361.103 354.436 361.103 351.718C361.103 348.999 358.898 346.794 356.179 346.794C353.46 346.794 351.256 348.999 351.256 351.718C351.256 354.436 353.46 356.641 356.179 356.641Z" fill="#1FAD9A"/>
<path d="M638.961 75.487C638.961 78.205 636.756 80.4101 634.038 80.4101C631.32 80.4101 629.115 78.205 629.115 75.487C629.115 72.7691 631.32 70.564 634.038 70.564C636.756 70.564 638.961 72.7691 638.961 75.487Z" fill="#1FAD9A"/>
<path d="M852.115 343.641C852.115 346.359 849.91 348.564 847.192 348.564C844.474 348.564 842.269 346.359 842.269 343.641C842.269 340.923 844.474 338.718 847.192 338.718C849.91 338.718 852.115 340.923 852.115 343.641Z" fill="#1FAD9A"/>
<path d="M962.051 274.256C962.051 276.974 959.846 279.179 957.128 279.179C954.41 279.179 952.205 276.974 952.205 274.256C952.205 271.538 954.41 269.333 957.128 269.333C959.846 269.333 962.051 271.538 962.051 274.256Z" fill="#D7C59A"/>
<path d="M845.654 127.179C845.654 129.897 843.449 132.102 840.731 132.102C838.013 132.102 835.808 129.897 835.808 127.179C835.808 124.461 838.013 122.256 840.731 122.256C843.449 122.256 845.654 124.461 845.654 127.179Z" fill="#D7C59A"/>
<path d="M761.731 329.025C761.731 331.743 759.526 333.948 756.808 333.948C754.09 333.948 751.885 331.743 751.885 329.025C751.885 326.307 754.09 324.102 756.808 324.102C759.526 324.102 761.731 326.307 761.731 329.025Z" fill="#D7C59A"/>
<path d="M396.577 242.025C399.296 242.025 401.5 239.821 401.5 237.102C401.5 234.383 399.296 232.179 396.577 232.179C393.858 232.179 391.654 234.383 391.654 237.102C391.654 239.821 393.858 242.025 396.577 242.025Z" fill="#D7C59A"/>
</g>
<mask id="mask1_28069_1748" style="mask-type:luminance" maskUnits="userSpaceOnUse" x="314" y="3" width="707" height="411">
<path d="M1021 3H314V414H1021V3Z" fill="white"/>
</mask>
<g mask="url(#mask1_28069_1748)">
<path d="M915.615 169.231C914.628 169.051 913.641 169.115 912.731 169.359L914.103 161.525L906.436 160.179C906.859 159.487 907.167 158.705 907.32 157.846C907.961 154.205 905.526 150.743 901.897 150.102C898.256 149.461 894.795 151.897 894.154 155.525C894 156.372 894.026 157.218 894.192 158.013L886.526 156.667L885.244 163.961C888.32 165 890.256 168.154 889.679 171.449C889.103 174.743 886.205 177.051 882.961 176.974L881.679 184.269L889.026 185.564C888.872 185.974 888.744 186.397 888.667 186.846C888.026 190.487 890.461 193.949 894.09 194.59C897.731 195.231 901.192 192.795 901.833 189.167C901.91 188.718 901.949 188.282 901.936 187.846L909.282 189.141L910.654 181.308C911.423 181.846 912.333 182.231 913.32 182.41C916.961 183.051 920.423 180.615 921.064 176.987C921.705 173.346 919.269 169.884 915.641 169.243L915.615 169.231Z" fill="#D7C59A"/>
<path d="M412.538 382.705C413.397 382.154 414.103 381.449 414.615 380.641L418.923 387.462L425.615 383.244C425.769 384.051 426.077 384.859 426.538 385.603C428.538 388.769 432.731 389.718 435.91 387.718C439.077 385.718 440.026 381.526 438.026 378.346C437.551 377.603 436.961 376.987 436.295 376.5L442.987 372.282L438.974 365.923C435.949 367.231 432.346 366.192 430.526 363.321C428.718 360.449 429.32 356.744 431.808 354.577L427.795 348.218L421.397 352.257C421.244 351.846 421.038 351.436 420.795 351.051C418.795 347.885 414.603 346.936 411.423 348.936C408.244 350.936 407.308 355.128 409.308 358.308C409.551 358.692 409.833 359.051 410.141 359.372L403.744 363.41L408.051 370.231C407.103 370.359 406.154 370.68 405.295 371.218C402.128 373.218 401.179 377.41 403.179 380.59C405.179 383.757 409.372 384.705 412.551 382.705H412.538Z" fill="#D7C59A"/>
<path d="M934.141 421.372C935 420.82 935.705 420.115 936.218 419.308L940.526 426.128L947.218 421.91C947.372 422.718 947.679 423.526 948.141 424.269C950.141 427.436 954.333 428.385 957.513 426.385C960.679 424.385 961.628 420.192 959.628 417.013C959.154 416.269 958.564 415.654 957.897 415.167L964.59 410.949L960.577 404.59C957.551 405.897 953.949 404.859 952.128 401.987C950.32 399.115 950.923 395.41 953.41 393.244L949.397 386.885L943 390.923C942.846 390.513 942.641 390.103 942.397 389.718C940.397 386.551 936.205 385.603 933.026 387.603C929.859 389.603 928.91 393.795 930.91 396.974C931.154 397.359 931.436 397.718 931.744 398.038L925.346 402.077L929.654 408.897C928.705 409.013 927.756 409.346 926.897 409.885C923.731 411.885 922.782 416.077 924.782 419.256C926.782 422.423 930.974 423.372 934.154 421.372H934.141Z" fill="#D7C59A"/>
<path d="M461.91 40.5512L457.961 32.4358L450 36.3076C449.923 35.3846 449.692 34.4615 449.256 33.5769C447.423 29.8076 442.872 28.2307 439.102 30.064C435.333 31.8974 433.756 36.4487 435.59 40.2179C436.026 41.1025 436.602 41.8589 437.282 42.4871L429.32 46.3589L433 53.923C436.526 52.8333 440.41 54.4487 442.064 57.8589C443.731 61.2692 442.602 65.3205 439.564 67.423L443.244 74.9871L450.859 71.282C450.987 71.7564 451.154 72.2307 451.385 72.7051C453.218 76.4743 457.769 78.0512 461.538 76.2179C465.308 74.3846 466.885 69.8333 465.051 66.0641C464.82 65.6025 464.564 65.1666 464.256 64.782L471.872 61.0769L467.923 52.9615C465.064 53.0128 462.295 51.4358 460.961 48.6923C459.628 45.9487 460.09 42.7948 461.897 40.5769L461.91 40.5512Z" fill="#1FAD9A"/>
<path d="M890.872 280.808L885.872 271.808L876.231 277.167C876.077 276.026 875.718 274.885 875.115 273.82C872.577 269.244 866.808 267.603 862.244 270.141C857.667 272.679 856.026 278.449 858.564 283.026C859.154 284.103 859.936 285 860.82 285.744L851.179 291.103L856.269 300.269L865.359 316.628L870.449 325.795L879.679 320.667L895.91 311.641L905.141 306.513L899.667 296.679C895.32 298.987 889.897 297.397 887.487 293.077C885.077 288.744 886.59 283.308 890.859 280.833L890.872 280.808Z" fill="#1FAD9A"/>
<path d="M1003.35 92.8593L1008.17 83.7183L998.372 78.5516C999.256 77.7952 1000.01 76.8721 1000.58 75.7824C1003.03 71.1413 1001.24 65.3849 996.603 62.9362C991.962 60.4875 986.205 62.2695 983.756 66.9106C983.18 68.0003 982.846 69.1413 982.718 70.2952L972.923 65.1285L968.013 74.4362L959.256 91.0644L954.346 100.372L963.718 105.308L980.205 114L989.577 118.936L994.846 108.936C990.513 106.552 988.872 101.116 991.192 96.7183C993.513 92.3208 998.923 90.6029 1003.35 92.8336V92.8593Z" fill="#1FAD9A"/>
</g>
</g>
<defs>
<clipPath id="clip0_28069_1748">
<rect width="1280" height="414" fill="white"/>
</clipPath>
</defs>
</svg>
