<svg width="1920" height="414" viewBox="0 0 1920 414" fill="none" xmlns="http://www.w3.org/2000/svg">
<g clip-path="url(#clip0_28090_425)">
<rect width="1920" height="414" fill="#F3EFE1"/>
<mask id="mask0_28090_425" style="mask-type:luminance" maskUnits="userSpaceOnUse" x="-11" y="-11" width="1942" height="425">
<path d="M1931 -11H-11V414H1931V-11Z" fill="white"/>
</mask>
<g mask="url(#mask0_28090_425)">
<path d="M1437.18 440.09L1345.77 424.538L1384.32 210.205L1475.6 226.526L1437.18 440.09Z" fill="#C7603D"/>
<g style="mix-blend-mode:multiply" opacity="0.39">
<path d="M1388.81 294.936C1403.06 327.462 1413.96 342.359 1453.28 351.385L1456.36 334.18C1432.35 324.436 1409.68 310.205 1388.81 294.949V294.936Z" fill="#A74425"/>
</g>
<path d="M1583.37 232.82C1577.6 218.064 1568.81 202.91 1564.92 188.205C1560.95 100.461 1495.67 63.9867 1460.73 60.2559C1383.86 52.0508 1324.41 100.551 1323.8 183.769C1323.18 266.987 1385.35 334.897 1462.65 335.474C1556.01 336.166 1564.37 328.282 1566.72 242.525C1569.28 242.397 1573.31 242.32 1577.17 242.217C1581.94 242.089 1585.13 237.256 1583.38 232.82H1583.37Z" fill="#C7603D"/>
<path d="M1363.85 482.448C1357.14 468.884 1362.79 452.282 1371.68 440.025C1380.55 427.782 1392.47 417.859 1400.44 405C1408.41 392.141 1411.55 374.307 1402.1 362.5C1394.9 353.5 1382.31 350.295 1374.86 341.513C1364.46 329.269 1367.36 310.692 1373.18 295.73C1379 280.756 1387.29 265.782 1385.94 249.782C1384.99 238.679 1377.97 231.807 1374.23 222.077C1370.1 211.346 1392.46 205.448 1395.72 209.218C1393.73 190.231 1402.55 167.884 1418.13 156.859C1441.37 140.423 1469.18 132.807 1493.22 118.141C1512.95 106.102 1532.12 85.2562 1513.79 63.0382C1501.9 48.6151 1469.67 44.6664 1452.5 44.7946C1419.76 45.051 1392.79 59.7433 1365.44 77.5126C1354.19 84.8203 1344.82 93.5895 1330.24 91.1536C1308.17 87.4613 1290.51 71.4613 1273.6 56.7946C1256.69 42.128 1237.31 27.4228 1214.92 27.269C1200.67 27.1664 1187.13 33.0767 1174.19 39.0767C1161.26 45.0767 1148 51.3844 1133.77 52.1792C1119.54 52.9741 1103.87 46.8203 1097.94 33.8587C1094.74 26.8844 1094.46 18.3844 1089.32 12.6921C1084.32 7.1536 1076.22 5.93565 1068.79 5.16642C1029.32 1.05104 989.538 -0.0643452 949.91 1.87155L-210.5 44.7946V482.448H1363.85Z" fill="#9B4322"/>
<path d="M1399.18 247.597C1410.65 223.133 1400.11 194.002 1375.65 182.532C1351.18 171.062 1322.05 181.596 1310.58 206.06C1299.11 230.524 1309.65 259.654 1334.11 271.124C1358.58 282.594 1387.71 272.061 1399.18 247.597Z" fill="#C7603D"/>
<path d="M1336.13 181.564C1342 179.128 1348.45 177.808 1355.21 177.859" stroke="#131426" stroke-miterlimit="10" stroke-linecap="round"/>
<path d="M1360.29 275.41C1358.38 275.628 1356.44 275.718 1354.47 275.705C1348.95 275.666 1343.64 274.705 1338.69 272.987" stroke="#131426" stroke-miterlimit="10" stroke-linecap="round"/>
<path d="M1341.65 220.577C1354.04 220.718 1366.21 227.013 1373.49 237.025C1360.9 232.32 1345.53 237 1336.94 247.333" stroke="#131426" stroke-linecap="round" stroke-linejoin="round"/>
<path d="M1543.92 195.974C1540.28 202.961 1533.58 208.256 1525.24 209.82C1516.95 211.384 1508.82 208.91 1502.9 203.782" stroke="#131426" stroke-miterlimit="10" stroke-linecap="round"/>
<path d="M1512.92 253.808C1514.65 257.949 1518.46 261.141 1522.83 262.128C1527.2 263.115 1532.03 261.859 1535.36 258.872" stroke="#131426" stroke-miterlimit="10" stroke-linecap="round"/>
<path d="M1488.94 147.679C1480.4 151.218 1466.46 159.077 1466.86 168.256C1466.99 171.192 1469.71 173.782 1473.15 173.231C1476.36 172.718 1478.64 170.526 1481.22 168.82C1491.28 162.192 1502.88 162.692 1513.78 159.333C1517.63 158.154 1520.82 155.744 1519.96 152.154C1517.19 140.538 1499.46 143.32 1488.95 147.679H1488.94Z" fill="#9B4322"/>
<path d="M1498.31 116.974C1490.72 127.487 1479.79 134.987 1469.83 143.282C1459.87 151.576 1450.32 161.512 1447.23 174.102C1442.81 192.179 1452.69 210.923 1450.97 229.461C1449.32 247.333 1437.32 262.218 1427.22 277.051C1417.13 291.884 1408.22 310.077 1413.62 327.179C1402.68 314.577 1407.01 294.846 1415.21 280.32C1423.4 265.782 1435.01 252.474 1437.76 236.012C1441.04 216.333 1430.85 196.205 1434.35 176.564C1437.79 157.218 1453.51 142.82 1467.74 129.256C1481.97 115.692 1496.49 99.2816 1496.28 79.6278C1496.26 77.3073 1503.28 81.2175 1503.9 81.8073C1506.21 84.0252 1506.35 90.2688 1506.42 93.1278C1506.65 101.602 1503.22 110.192 1498.31 116.974Z" fill="#9B4322"/>
<path d="M1310.73 358.333C1310.73 358.333 1310.36 371.102 1301.5 371.102C1301.5 371.102 1310.73 373.359 1310.73 383.91C1310.73 383.91 1311.74 372.743 1320.73 371.102C1320.73 371.102 1311.01 370.525 1310.73 358.333Z" fill="white"/>
<path d="M989.577 350.103C989.577 350.103 989.205 362.872 980.346 362.872C980.346 362.872 989.577 365.128 989.577 375.679C989.577 375.679 990.59 364.513 999.577 362.872C999.577 362.872 989.859 362.295 989.577 350.103Z" fill="white"/>
<path d="M693.949 59.333C693.949 59.333 693.577 72.1022 684.718 72.1022C684.718 72.1022 693.949 74.3586 693.949 84.9099C693.949 84.9099 694.962 73.7433 703.949 72.1022C703.949 72.1022 694.231 71.5253 693.949 59.333Z" fill="white"/>
<path d="M1029.96 48.0254C1029.96 48.0254 1029.59 60.7946 1020.73 60.7946C1020.73 60.7946 1029.96 63.051 1029.96 73.6023C1029.96 73.6023 1030.97 62.4356 1039.96 60.7946C1039.96 60.7946 1030.24 60.2177 1029.96 48.0254Z" fill="white"/>
<path d="M1252.88 86.7949C1252.88 86.7949 1252.51 99.5642 1243.65 99.5642C1243.65 99.5642 1252.88 101.821 1252.88 112.372C1252.88 112.372 1253.9 101.205 1262.88 99.5642C1262.88 99.5642 1253.17 98.9872 1252.88 86.7949Z" fill="white"/>
<path d="M1469.03 64.3716C1469.03 64.3716 1468.65 77.1408 1459.79 77.1408C1459.79 77.1408 1469.03 79.3972 1469.03 89.9485C1469.03 89.9485 1470.04 78.7818 1479.03 77.1408C1479.03 77.1408 1469.31 76.5639 1469.03 64.3716Z" fill="white"/>
<path d="M1363.73 117.231C1363.73 119.949 1361.53 122.154 1358.81 122.154C1356.09 122.154 1353.88 119.949 1353.88 117.231C1353.88 114.513 1356.09 112.308 1358.81 112.308C1361.53 112.308 1363.73 114.513 1363.73 117.231Z" fill="#1FAD9A"/>
<path d="M676.179 356.641C678.898 356.641 681.103 354.436 681.103 351.718C681.103 348.999 678.898 346.794 676.179 346.794C673.46 346.794 671.256 348.999 671.256 351.718C671.256 354.436 673.46 356.641 676.179 356.641Z" fill="#1FAD9A"/>
<path d="M958.961 75.487C958.961 78.205 956.756 80.4101 954.038 80.4101C951.32 80.4101 949.115 78.205 949.115 75.487C949.115 72.7691 951.32 70.564 954.038 70.564C956.756 70.564 958.961 72.7691 958.961 75.487Z" fill="#1FAD9A"/>
<path d="M1172.12 343.641C1172.12 346.359 1169.91 348.564 1167.19 348.564C1164.47 348.564 1162.27 346.359 1162.27 343.641C1162.27 340.923 1164.47 338.718 1167.19 338.718C1169.91 338.718 1172.12 340.923 1172.12 343.641Z" fill="#1FAD9A"/>
<path d="M1282.05 274.256C1282.05 276.974 1279.85 279.179 1277.13 279.179C1274.41 279.179 1272.21 276.974 1272.21 274.256C1272.21 271.538 1274.41 269.333 1277.13 269.333C1279.85 269.333 1282.05 271.538 1282.05 274.256Z" fill="#D7C59A"/>
<path d="M1165.65 127.179C1165.65 129.897 1163.45 132.102 1160.73 132.102C1158.01 132.102 1155.81 129.897 1155.81 127.179C1155.81 124.461 1158.01 122.256 1160.73 122.256C1163.45 122.256 1165.65 124.461 1165.65 127.179Z" fill="#D7C59A"/>
<path d="M1081.73 329.025C1081.73 331.743 1079.53 333.948 1076.81 333.948C1074.09 333.948 1071.88 331.743 1071.88 329.025C1071.88 326.307 1074.09 324.102 1076.81 324.102C1079.53 324.102 1081.73 326.307 1081.73 329.025Z" fill="#D7C59A"/>
<path d="M716.577 242.025C719.296 242.025 721.5 239.821 721.5 237.102C721.5 234.383 719.296 232.179 716.577 232.179C713.858 232.179 711.654 234.383 711.654 237.102C711.654 239.821 713.858 242.025 716.577 242.025Z" fill="#D7C59A"/>
</g>
<mask id="mask1_28090_425" style="mask-type:luminance" maskUnits="userSpaceOnUse" x="634" y="3" width="707" height="411">
<path d="M1341 3H634V414H1341V3Z" fill="white"/>
</mask>
<g mask="url(#mask1_28090_425)">
<path d="M1235.62 169.231C1234.63 169.051 1233.64 169.115 1232.73 169.359L1234.1 161.525L1226.44 160.179C1226.86 159.487 1227.17 158.705 1227.32 157.846C1227.96 154.205 1225.53 150.743 1221.9 150.102C1218.26 149.461 1214.79 151.897 1214.15 155.525C1214 156.372 1214.03 157.218 1214.19 158.013L1206.53 156.667L1205.24 163.961C1208.32 165 1210.26 168.154 1209.68 171.449C1209.1 174.743 1206.21 177.051 1202.96 176.974L1201.68 184.269L1209.03 185.564C1208.87 185.974 1208.74 186.397 1208.67 186.846C1208.03 190.487 1210.46 193.949 1214.09 194.59C1217.73 195.231 1221.19 192.795 1221.83 189.167C1221.91 188.718 1221.95 188.282 1221.94 187.846L1229.28 189.141L1230.65 181.308C1231.42 181.846 1232.33 182.231 1233.32 182.41C1236.96 183.051 1240.42 180.615 1241.06 176.987C1241.71 173.346 1239.27 169.884 1235.64 169.243L1235.62 169.231Z" fill="#D7C59A"/>
<path d="M732.538 382.705C733.397 382.154 734.103 381.449 734.615 380.641L738.923 387.462L745.615 383.244C745.769 384.051 746.077 384.859 746.538 385.603C748.538 388.769 752.731 389.718 755.91 387.718C759.077 385.718 760.026 381.526 758.026 378.346C757.551 377.603 756.961 376.987 756.295 376.5L762.987 372.282L758.974 365.923C755.949 367.231 752.346 366.192 750.526 363.321C748.718 360.449 749.32 356.744 751.808 354.577L747.795 348.218L741.397 352.257C741.244 351.846 741.038 351.436 740.795 351.051C738.795 347.885 734.603 346.936 731.423 348.936C728.244 350.936 727.308 355.128 729.308 358.308C729.551 358.692 729.833 359.051 730.141 359.372L723.744 363.41L728.051 370.231C727.103 370.359 726.154 370.68 725.295 371.218C722.128 373.218 721.179 377.41 723.179 380.59C725.179 383.757 729.372 384.705 732.551 382.705H732.538Z" fill="#D7C59A"/>
<path d="M1254.14 421.372C1255 420.82 1255.71 420.115 1256.22 419.308L1260.53 426.128L1267.22 421.91C1267.37 422.718 1267.68 423.526 1268.14 424.269C1270.14 427.436 1274.33 428.385 1277.51 426.385C1280.68 424.385 1281.63 420.192 1279.63 417.013C1279.15 416.269 1278.56 415.654 1277.9 415.167L1284.59 410.949L1280.58 404.59C1277.55 405.897 1273.95 404.859 1272.13 401.987C1270.32 399.115 1270.92 395.41 1273.41 393.244L1269.4 386.885L1263 390.923C1262.85 390.513 1262.64 390.103 1262.4 389.718C1260.4 386.551 1256.21 385.603 1253.03 387.603C1249.86 389.603 1248.91 393.795 1250.91 396.974C1251.15 397.359 1251.44 397.718 1251.74 398.038L1245.35 402.077L1249.65 408.897C1248.71 409.013 1247.76 409.346 1246.9 409.885C1243.73 411.885 1242.78 416.077 1244.78 419.256C1246.78 422.423 1250.97 423.372 1254.15 421.372H1254.14Z" fill="#D7C59A"/>
<path d="M781.91 40.5512L777.961 32.4358L770 36.3076C769.923 35.3846 769.692 34.4615 769.256 33.5769C767.423 29.8076 762.872 28.2307 759.102 30.064C755.333 31.8974 753.756 36.4487 755.59 40.2179C756.026 41.1025 756.602 41.8589 757.282 42.4871L749.32 46.3589L753 53.923C756.526 52.8333 760.41 54.4487 762.064 57.8589C763.731 61.2692 762.602 65.3205 759.564 67.423L763.244 74.9871L770.859 71.282C770.987 71.7564 771.154 72.2307 771.385 72.7051C773.218 76.4743 777.769 78.0512 781.538 76.2179C785.308 74.3846 786.885 69.8333 785.051 66.0641C784.82 65.6025 784.564 65.1666 784.256 64.782L791.872 61.0769L787.923 52.9615C785.064 53.0128 782.295 51.4358 780.961 48.6923C779.628 45.9487 780.09 42.7948 781.897 40.5769L781.91 40.5512Z" fill="#1FAD9A"/>
<path d="M1210.87 280.808L1205.87 271.808L1196.23 277.167C1196.08 276.026 1195.72 274.885 1195.12 273.82C1192.58 269.244 1186.81 267.603 1182.24 270.141C1177.67 272.679 1176.03 278.449 1178.56 283.026C1179.15 284.103 1179.94 285 1180.82 285.744L1171.18 291.103L1176.27 300.269L1185.36 316.628L1190.45 325.795L1199.68 320.667L1215.91 311.641L1225.14 306.513L1219.67 296.679C1215.32 298.987 1209.9 297.397 1207.49 293.077C1205.08 288.744 1206.59 283.308 1210.86 280.833L1210.87 280.808Z" fill="#1FAD9A"/>
<path d="M1323.35 92.8593L1328.17 83.7183L1318.37 78.5516C1319.26 77.7952 1320.01 76.8721 1320.58 75.7824C1323.03 71.1413 1321.24 65.3849 1316.6 62.9362C1311.96 60.4875 1306.21 62.2695 1303.76 66.9106C1303.18 68.0003 1302.85 69.1413 1302.72 70.2952L1292.92 65.1285L1288.01 74.4362L1279.26 91.0644L1274.35 100.372L1283.72 105.308L1300.21 114L1309.58 118.936L1314.85 108.936C1310.51 106.552 1308.87 101.116 1311.19 96.7183C1313.51 92.3208 1318.92 90.6029 1323.35 92.8336V92.8593Z" fill="#1FAD9A"/>
</g>
</g>
<defs>
<clipPath id="clip0_28090_425">
<rect width="1920" height="414" fill="white"/>
</clipPath>
</defs>
</svg>
