<svg width="24" height="24" viewBox="0 0 24 24" fill="none" xmlns="http://www.w3.org/2000/svg">
<path d="M10.6 10.5789H13.4M8.26667 6.83185V5.52632C8.26667 4.13108 9.38098 3.00001 10.7555 3H13.2445C14.619 3.00001 15.7333 4.13107 15.7333 5.52631V6.83157M19 19.1053V12C19 8.8607 16.4928 6.31579 13.4 6.31579H10.6C7.50721 6.31579 5 8.8607 5 12V19.1053C5 20.1517 5.83574 21 6.86667 21H17.1333C18.1643 21 19 20.1517 19 19.1053ZM5 14.3684H19V15.3158C19 16.3622 18.1643 17.2105 17.1333 17.2105H6.86667C5.83574 17.2105 5 16.3622 5 15.3158V14.3684Z" stroke="#168B7D" stroke-width="1.5" stroke-linecap="round" stroke-linejoin="round"/>
</svg>
