<svg width="12" height="12" viewBox="0 0 12 12" fill="none" xmlns="http://www.w3.org/2000/svg">
<path fill-rule="evenodd" clip-rule="evenodd" d="M6.31463 1.82675C6.13115 1.97521 5.86886 1.97521 5.68537 1.82675C5.28434 1.50672 4.74759 1.41376 4.26229 1.58029C3.77699 1.74682 3.41041 2.14975 3.29037 2.64859C3.24792 2.84268 3.09596 2.99406 2.90171 3.03575C2.33065 3.15166 1.85469 3.54409 1.63205 4.08258C1.40941 4.62107 1.46928 5.23504 1.79175 5.72037C1.90795 5.8905 1.90795 6.11448 1.79175 6.28461C1.46928 6.76994 1.40941 7.38391 1.63205 7.9224C1.85469 8.46089 2.33065 8.85332 2.90171 8.96923C3.09596 9.01092 3.24792 9.1623 3.29037 9.35639C3.41106 9.85479 3.77791 10.2571 4.26311 10.423C4.74831 10.589 5.28469 10.4958 5.68537 10.1757C5.86886 10.0273 6.13115 10.0273 6.31463 10.1757C6.71601 10.4958 7.25313 10.5884 7.73853 10.4213C8.22393 10.2543 8.59025 9.85066 8.70963 9.35138C8.75208 9.1573 8.90404 9.00592 9.09829 8.96422C9.66942 8.84825 10.1454 8.45569 10.368 7.91707C10.5905 7.37845 10.5305 6.7644 10.2078 6.27911C10.092 6.1092 10.092 5.88578 10.2078 5.71587C10.5305 5.23058 10.5905 4.61653 10.368 4.07791C10.1454 3.53929 9.66942 3.14672 9.09829 3.03075C8.90404 2.98905 8.75208 2.83768 8.70963 2.64359C8.58894 2.14519 8.22209 1.74292 7.73689 1.57693C7.25169 1.41094 6.71532 1.50421 6.31463 1.82425V1.82675Z" stroke="#168B7D" stroke-linecap="round" stroke-linejoin="round"/>
<path d="M6 1.93732V10.0622" stroke="#168B7D" stroke-linecap="round" stroke-linejoin="round"/>
<path d="M7.50063 8.00084C7.50063 7.44833 7.94853 7.00043 8.50104 7.00043" stroke="#168B7D" stroke-linecap="round" stroke-linejoin="round"/>
<path d="M4.49938 3.99918C4.49938 4.55169 4.05147 4.99959 3.49896 4.99959" stroke="#168B7D" stroke-linecap="round" stroke-linejoin="round"/>
<path d="M4.49938 8.00084C4.49938 7.44833 4.05147 7.00043 3.49896 7.00043" stroke="#168B7D" stroke-linecap="round" stroke-linejoin="round"/>
<path d="M7.50063 3.99918C7.50063 4.55169 7.94853 4.99959 8.50104 4.99959" stroke="#168B7D" stroke-linecap="round" stroke-linejoin="round"/>
</svg>
