<svg width="20" height="20" viewBox="0 0 20 20" fill="none" xmlns="http://www.w3.org/2000/svg">
<path d="M17.5 8.33317H2.5M17.5 9.58317V7.33317C17.5 5.93304 17.5 5.23297 17.2275 4.69819C16.9878 4.22779 16.6054 3.84534 16.135 3.60565C15.6002 3.33317 14.9001 3.33317 13.5 3.33317H6.5C5.09987 3.33317 4.3998 3.33317 3.86502 3.60565C3.39462 3.84534 3.01217 4.22779 2.77248 4.69819C2.5 5.23297 2.5 5.93304 2.5 7.33317V14.3332C2.5 15.7333 2.5 16.4334 2.77248 16.9681C3.01217 17.4386 3.39462 17.821 3.86502 18.0607C4.3998 18.3332 5.09987 18.3332 6.5 18.3332H10.4167M13.3333 1.6665V4.99984M6.66667 1.6665V4.99984M14.5813 13.0931C13.9982 12.4438 13.0258 12.2692 12.2951 12.8637C11.5645 13.4583 11.4616 14.4523 12.0354 15.1555C12.6092 15.8587 14.5813 17.4998 14.5813 17.4998C14.5813 17.4998 16.5535 15.8587 17.1273 15.1555C17.7011 14.4523 17.6107 13.452 16.8676 12.8637C16.1244 12.2754 15.1645 12.4438 14.5813 13.0931Z" stroke="#FAF8F2" stroke-width="1.66667" stroke-linecap="round" stroke-linejoin="round"/>
</svg>
