<svg width="24" height="24" viewBox="0 0 24 24" fill="none" xmlns="http://www.w3.org/2000/svg">
<path d="M10.3593 9.489C10.4475 9.5772 10.4475 9.7194 10.3593 9.8076C10.2711 9.8958 10.1289 9.8958 10.0407 9.8076C9.9525 9.7194 9.9525 9.5772 10.0407 9.489C10.1289 9.4017 10.2711 9.4017 10.3593 9.489" stroke="#168B7D" stroke-width="1.5" stroke-linecap="round" stroke-linejoin="round"/>
<path d="M13.5588 9.489C13.647 9.5772 13.647 9.7194 13.5588 9.8076C13.4706 9.8958 13.3284 9.8958 13.2402 9.8076C13.152 9.7194 13.152 9.5772 13.2402 9.489C13.3284 9.4017 13.4715 9.4017 13.5588 9.489" stroke="#168B7D" stroke-width="1.5" stroke-linecap="round" stroke-linejoin="round"/>
<path d="M7.15892 9.489C7.24712 9.5772 7.24712 9.7194 7.15892 9.8076C7.07072 9.8958 6.92852 9.8958 6.84032 9.8076C6.75212 9.7194 6.75212 9.5772 6.84032 9.489C6.92852 9.4017 7.07162 9.4017 7.15892 9.489" stroke="#168B7D" stroke-width="1.5" stroke-linecap="round" stroke-linejoin="round"/>
<path d="M12.0612 15.8034C11.4663 15.9474 10.8444 16.032 10.2 16.032C9.6879 16.032 9.1884 15.9816 8.7051 15.8889L5.88 17.2803C5.88 16.3173 5.8782 15.4002 5.8791 14.7198C4.1358 13.5336 3 11.6526 3 9.516C3 5.9007 6.2382 3 10.2 3C14.1618 3 17.4 5.9007 17.4 9.516C17.4 10.3989 17.2038 11.2377 16.8546 12.0036M17.769 15.231L15.231 17.769M17.769 17.769L15.231 15.231M16.5 21C14.0151 21 12 18.9849 12 16.5C12 14.0151 14.0151 12 16.5 12C18.9858 12 21 14.0151 21 16.5C21 18.9849 18.9858 21 16.5 21Z" stroke="#168B7D" stroke-width="1.5" stroke-linecap="round" stroke-linejoin="round"/>
</svg>
