<svg width="24" height="24" viewBox="0 0 24 24" fill="none" xmlns="http://www.w3.org/2000/svg">
<path d="M5.7 19.5L9.3 15.9706M9.3 15.9706L12.1544 15.9706C12.6318 15.9706 13.0896 15.7847 13.4272 15.4537L18.1093 10.8634M9.3 15.9706L9.29999 13.1721C9.29999 12.7041 9.48963 12.2553 9.82719 11.9243L14.5093 7.33399M11.1 10.6765L14.7 14.2059M10.2 8.02941L9.49066 7.33399M5.89066 10.8634L7.05 12M18.3 19.5L15.6 16.8529M14.185 7.01605L18.4336 11.1813C18.947 11.6847 19.7794 11.6847 20.2928 11.1813L20.615 10.8655C21.1283 10.3621 21.1283 9.54609 20.615 9.04277L16.3664 4.87749C15.853 4.37417 15.0206 4.37417 14.5072 4.87749L14.185 5.19336C13.6717 5.69668 13.6716 6.51273 14.185 7.01605ZM7.63363 4.8775L3.38504 9.04278C2.87165 9.5461 2.87165 10.3621 3.38504 10.8655L3.70723 11.1813C4.22062 11.6847 5.05298 11.6847 5.56637 11.1813L9.81496 7.01606C10.3283 6.51273 10.3283 5.69669 9.81496 5.19337L9.49277 4.8775C8.97938 4.37418 8.14702 4.37417 7.63363 4.8775Z" stroke="#168B7D" stroke-width="1.5" stroke-linecap="round" stroke-linejoin="round"/>
</svg>
