<svg width="12" height="12" viewBox="0 0 12 12" fill="none" xmlns="http://www.w3.org/2000/svg">
<path d="M1.49811 7.87578H2.66559C2.84248 7.8759 3.01216 7.80572 3.13729 7.6807V7.6807C3.26231 7.55557 3.33249 7.38589 3.33237 7.209V4.54089C3.33249 4.36401 3.26231 4.19433 3.13729 4.0692V4.0692C3.01216 3.94418 2.84248 3.874 2.66559 3.87412H1.50161" stroke="#168B7D" stroke-linecap="round" stroke-linejoin="round"/>
<path d="M10.4984 3.87412H9.33487C9.15799 3.874 8.9883 3.94418 8.86317 4.0692V4.0692C8.73815 4.19433 8.66798 4.36401 8.66809 4.54089V7.209C8.66798 7.38589 8.73815 7.55557 8.86317 7.6807V7.6807C8.9883 7.80572 9.15799 7.8759 9.33487 7.87578H10.4984" stroke="#168B7D" stroke-linecap="round" stroke-linejoin="round"/>
<path d="M8.67811 7.32405H8.24793C8.10485 7.32394 7.96341 7.35465 7.83326 7.41409L5.72888 8.37249" stroke="#168B7D" stroke-linecap="round" stroke-linejoin="round"/>
<path d="M5.32222 4.33331C5.06916 4.18259 4.76232 4.15182 4.48437 4.24927L3.33389 4.66394" stroke="#168B7D" stroke-linecap="round" stroke-linejoin="round"/>
<path d="M8.74814 4.21725L7.30954 3.58399C7.00124 3.44831 6.64535 3.47689 6.36265 3.66002L5.05711 4.50587C4.86091 4.63303 4.73488 4.84408 4.71597 5.07711C4.69707 5.31015 4.78743 5.53875 4.96057 5.69587V5.69587C5.18529 5.89939 5.51008 5.94846 5.78491 5.82042L6.56323 5.45727" stroke="#168B7D" stroke-linecap="round" stroke-linejoin="round"/>
<path d="M6.56322 5.45677L6.95839 5.81542C7.16701 6.00443 7.28633 6.27259 7.2871 6.5541C7.28786 6.8356 7.16998 7.1044 6.96239 7.29454L5.95347 8.21792C5.57262 8.56651 4.98906 8.56802 4.60641 8.22142L3.91312 7.59266C3.74846 7.4463 3.5401 7.35839 3.32037 7.34256" stroke="#168B7D" stroke-linecap="round" stroke-linejoin="round"/>
</svg>
