<svg width="24" height="24" viewBox="0 0 24 24" fill="none" xmlns="http://www.w3.org/2000/svg">
<path d="M7.65138 1.57271C6.53417 1.62544 5.7711 1.80439 5.1043 2.06567C4.41404 2.33477 3.8289 2.69539 3.24682 3.27986C2.66405 3.86467 2.30616 4.45084 2.03911 5.1418C1.78056 5.8103 1.60535 6.57373 1.55601 7.69164C1.50703 8.8116 1.4958 9.16881 1.50126 12.0201C1.5067 14.871 1.51928 15.2289 1.57269 16.3492C1.62609 17.4661 1.80438 18.2288 2.06565 18.896C2.33509 19.5862 2.69535 20.171 3.28015 20.7535C3.86462 21.3359 4.45112 21.6935 5.14241 21.9609C5.81022 22.2191 6.57397 22.395 7.69154 22.4439C8.81148 22.4933 9.16902 22.5042 12.0196 22.4987C14.8715 22.4933 15.229 22.4807 16.349 22.4276C17.4662 22.3742 18.2286 22.1953 18.896 21.9347C19.5863 21.6645 20.1714 21.3049 20.7535 20.7201C21.3356 20.1357 21.6935 19.5491 21.9606 18.8579C22.2191 18.19 22.395 17.4263 22.4437 16.3094C22.4926 15.1887 22.5042 14.8308 22.4988 11.9799C22.4933 9.12866 22.4804 8.77145 22.4273 7.65184C22.3743 6.53392 22.1953 5.77153 21.9344 5.10404C21.6646 4.41377 21.3047 3.82929 20.7202 3.24652C20.1357 2.66443 19.5492 2.30585 18.8579 2.03948C18.1898 1.78092 17.4264 1.60469 16.3088 1.55638C15.1889 1.50671 14.8313 1.49583 11.9798 1.50127C9.12888 1.50671 8.77134 1.51896 7.65138 1.57271ZM7.77387 20.5541C6.7502 20.5095 6.19432 20.3394 5.82384 20.1969C5.33327 20.0071 4.98321 19.7795 4.61477 19.4137C4.24701 19.0467 4.01873 18.6976 3.8272 18.2081C3.68328 17.8376 3.51013 17.2824 3.46217 16.2587C3.41011 15.152 3.39821 14.82 3.3931 12.0163C3.38766 9.21338 3.39786 8.88133 3.44618 7.77363C3.49005 6.75063 3.66119 6.19406 3.80338 5.82391C3.99321 5.33265 4.22012 4.98326 4.58652 4.61483C4.95359 4.24638 5.30264 4.01878 5.79253 3.82725C6.16267 3.68266 6.71789 3.51085 7.74121 3.46221C8.84856 3.40981 9.18025 3.39859 11.9832 3.39315C14.7867 3.3877 15.1188 3.39757 16.2265 3.44622C17.2495 3.49078 17.806 3.66021 18.1758 3.80344C18.6667 3.99327 19.0168 4.2195 19.3849 4.58659C19.753 4.95367 19.9813 5.30204 20.1728 5.79295C20.3174 6.16207 20.4892 6.71797 20.5375 7.74097C20.5902 8.84834 20.6022 9.18037 20.6072 11.9833C20.6127 14.787 20.6025 15.119 20.5538 16.226C20.5093 17.2497 20.3395 17.8059 20.1966 18.1768C20.0068 18.667 19.7799 19.0171 19.4131 19.3855C19.0464 19.7526 18.6974 19.9815 18.2071 20.1731C17.8377 20.3173 17.2818 20.4895 16.2591 20.5381C15.1518 20.5902 14.8201 20.6021 12.0162 20.6072C9.21325 20.6126 8.88156 20.6021 7.77387 20.5541ZM16.3337 6.3873C16.335 7.08268 16.9004 7.64572 17.5958 7.64436C18.2915 7.643 18.8545 7.07791 18.8535 6.38253C18.8522 5.68715 18.2867 5.12378 17.591 5.12514C16.8953 5.1265 16.3323 5.69192 16.3337 6.3873ZM6.60869 12.0102C6.61446 14.988 9.03295 17.3967 12.01 17.3909C14.9875 17.3851 17.3975 14.9673 17.3917 11.9895C17.3859 9.01266 14.9671 6.60264 11.9893 6.60843C9.01219 6.61421 6.6029 9.03307 6.60869 12.0102ZM8.49985 12.0065C8.49645 10.0738 10.0607 8.50371 11.993 8.50031C13.9257 8.49657 15.4961 10.0601 15.4998 11.9932C15.5036 13.9262 13.9393 15.4959 12.0063 15.4997C10.074 15.5034 8.50359 13.9395 8.49985 12.0065Z" fill="#168B7D"/>
</svg>
