<svg width="12" height="12" viewBox="0 0 12 12" fill="none" xmlns="http://www.w3.org/2000/svg">
<path d="M6.8839 5.4911C7.37206 5.97926 7.37206 6.77071 6.8839 7.25887C6.39574 7.74702 5.60429 7.74702 5.11613 7.25887C4.62798 6.77071 4.62798 5.97926 5.11613 5.4911C5.60429 5.00295 6.39574 5.00295 6.8839 5.4911" stroke="#168B7D" stroke-linecap="round" stroke-linejoin="round"/>
<path d="M9.6269 2.49112C10.1151 2.97927 10.1151 3.77073 9.6269 4.25888C9.13875 4.74704 8.34729 4.74704 7.85914 4.25888C7.37098 3.77073 7.37098 2.97927 7.85914 2.49112C8.34729 2.00296 9.13875 2.00296 9.6269 2.49112" stroke="#168B7D" stroke-linecap="round" stroke-linejoin="round"/>
<path d="M9 6.125C9.7665 6.125 10.5 6.3915 11 6.7915" stroke="#168B7D" stroke-linecap="round" stroke-linejoin="round"/>
<path d="M4.14088 2.49112C4.62904 2.97927 4.62904 3.77073 4.14088 4.25888C3.65273 4.74704 2.86127 4.74704 2.37312 4.25888C1.88496 3.77073 1.88496 2.97927 2.37312 2.49112C2.86128 2.00296 3.65273 2.00296 4.14088 2.49112" stroke="#168B7D" stroke-linecap="round" stroke-linejoin="round"/>
<path d="M1 6.7915C1.5 6.3915 2.2335 6.125 3 6.125" stroke="#168B7D" stroke-linecap="round" stroke-linejoin="round"/>
<path d="M8.2955 9.875C7.713 9.4245 6.876 9.125 6 9.125C5.124 9.125 4.287 9.4245 3.7045 9.875" stroke="#168B7D" stroke-linecap="round" stroke-linejoin="round"/>
</svg>
