<svg width="24" height="24" viewBox="0 0 24 24" fill="none" xmlns="http://www.w3.org/2000/svg">
<g clip-path="url(#clip0_28048_415)">
<path d="M20.4126 3.48769C18.1664 1.23993 15.1796 0.00137141 11.9974 0C5.43993 0 0.10348 5.33475 0.100854 11.8919C0.10009 13.9879 0.647754 16.034 1.68871 17.8375L0.000976562 24L6.30747 22.3464C8.04503 23.294 10.0014 23.7933 11.9923 23.7941H11.9973H11.9974C18.5538 23.7941 23.891 18.4584 23.8938 11.9016C23.8949 8.72364 22.6585 5.73561 20.4126 3.48769ZM11.9974 21.7855H11.9935C10.219 21.7846 8.47876 21.3081 6.96089 20.4075L6.59966 20.1933L2.85725 21.1745L3.85642 17.527L3.62107 17.1531C2.63121 15.5792 2.10864 13.7603 2.10938 11.8927C2.11156 6.44257 6.54701 2.00867 12.0011 2.00867C14.6423 2.00976 17.1247 3.03926 18.9917 4.90753C20.8585 6.77579 21.8859 9.25937 21.8851 11.9007C21.8828 17.351 17.4472 21.7855 11.9974 21.7855Z" fill="#E0E0E0"/>
<path fill-rule="evenodd" clip-rule="evenodd" d="M9.05738 6.84321C8.83729 6.35387 8.60556 6.34408 8.39616 6.33551C8.22489 6.32817 8.02882 6.32862 7.83306 6.32862C7.63714 6.32862 7.31878 6.40224 7.04955 6.69627C6.78017 6.9903 6.021 7.70111 6.021 9.14675C6.021 10.5925 7.07404 11.9895 7.22082 12.1857C7.36776 12.3817 9.25361 15.4432 12.2402 16.6209C14.7224 17.5998 15.2275 17.4051 15.7663 17.3561C16.305 17.3071 17.5047 16.6454 17.7496 15.9593C17.9945 15.2732 17.9945 14.6852 17.921 14.5623C17.8476 14.4398 17.6517 14.3664 17.3578 14.2194C17.0639 14.0725 15.6193 13.3615 15.35 13.2636C15.0806 13.1656 14.8847 13.1166 14.6887 13.4108C14.4928 13.7047 13.93 14.3664 13.7586 14.5623C13.5872 14.7586 13.4157 14.7831 13.1219 14.6362C12.828 14.4888 11.8816 14.1788 10.7589 13.1778C9.88544 12.3991 9.29569 11.4372 9.12426 11.1431C8.95284 10.8492 9.10589 10.69 9.25329 10.5435C9.38522 10.4119 9.54717 10.2005 9.6941 10.0289C9.84073 9.85736 9.88971 9.73491 9.98766 9.53899C10.0856 9.34276 10.0366 9.1712 9.96317 9.02426C9.88971 8.87733 9.31865 7.42422 9.05738 6.84321Z" fill="url(#paint0_linear_28048_415)"/>
<path d="M20.315 3.44987C18.0946 1.22791 15.1421 0.00358827 11.9964 0.00219727C5.51421 0.00219727 0.239023 5.2757 0.236417 11.7576C0.235653 13.8296 0.777027 15.8521 1.80604 17.6349L0.137695 23.7267L6.37179 22.092C8.08943 23.0287 10.0233 23.5223 11.9914 23.5231H11.9964H11.9964C18.4775 23.5231 23.7535 18.2487 23.7563 11.7671C23.7573 8.62571 22.5352 5.67198 20.315 3.44987ZM11.9964 21.5376H11.9926C10.2384 21.5367 8.51815 21.0658 7.01771 20.1754L6.66061 19.9637L2.96118 20.9337L3.94886 17.3281L3.71621 16.9584C2.73771 15.4026 2.22114 13.6046 2.22191 11.7584C2.22404 6.37085 6.60858 1.98784 12.0001 1.98784C14.611 1.98892 17.0648 3.00661 18.9104 4.85343C20.7559 6.70025 21.7714 9.1553 21.7706 11.7664C21.7683 17.154 17.3836 21.5376 11.9964 21.5376Z" fill="url(#paint1_linear_28048_415)"/>
</g>
<defs>
<linearGradient id="paint0_linear_28048_415" x1="17.2174" y1="7.71313" x2="6.809" y2="18.1878" gradientUnits="userSpaceOnUse">
<stop stop-color="#5BD066"/>
<stop offset="1" stop-color="#27B43E"/>
</linearGradient>
<linearGradient id="paint1_linear_28048_415" x1="22.2801" y1="2.96776" x2="0.0454766" y2="23.6274" gradientUnits="userSpaceOnUse">
<stop stop-color="#5BD066"/>
<stop offset="1" stop-color="#27B43E"/>
</linearGradient>
<clipPath id="clip0_28048_415">
<rect width="23.8944" height="24" fill="white"/>
</clipPath>
</defs>
</svg>
